<svg width="74" height="40" viewBox="0 0 74 40" fill="none" xmlns="http://www.w3.org/2000/svg">
<path d="M71.832 0.488037H2.16797C0.970672 0.488037 0 1.45871 0 2.65601V28.6716C0 29.8689 0.970672 30.8396 2.16797 30.8396H7.33207L4.56488 36.374C4.02939 37.445 4.46341 38.7472 5.53439 39.2827C6.60667 39.8187 7.90817 39.3825 8.44294 38.3132L12.1796 30.8397H61.8204L65.5571 38.3132C66.0915 39.3823 67.3929 39.819 68.4656 39.2827C69.5366 38.7472 69.9706 37.445 69.4351 36.374L66.6679 30.8396H71.832C73.0293 30.8396 74 29.8689 74 28.6716V2.65601C74 1.45871 73.0293 0.488037 71.832 0.488037ZM43.3594 26.5037H26.0156V4.82397H43.3594V26.5037ZM47.6953 13.4958H69.6641V17.8318H47.6953V13.4958ZM69.6641 9.15991H47.6953V4.82397H69.6641V9.15991ZM4.33594 4.82397H21.6797V26.5037H4.33594V4.82397ZM47.6953 26.5037V22.1677H69.6641V26.5037H47.6953Z" fill="white"/>
<path d="M36.8555 13.4958C38.0528 13.4958 39.0234 12.5252 39.0234 11.3279C39.0234 10.1305 38.0528 9.15991 36.8555 9.15991C35.6581 9.15991 34.6875 10.1305 34.6875 11.3279C34.6875 12.5252 35.6581 13.4958 36.8555 13.4958Z" fill="white"/>
<path d="M15.1758 13.4958C16.3731 13.4958 17.3438 12.5252 17.3438 11.3279C17.3438 10.1305 16.3731 9.15991 15.1758 9.15991C13.9784 9.15991 13.0078 10.1305 13.0078 11.3279C13.0078 12.5252 13.9784 13.4958 15.1758 13.4958Z" fill="white"/>
</svg>
