<svg width="46" height="46" viewBox="0 0 46 46" fill="none" xmlns="http://www.w3.org/2000/svg">
<path d="M40.6094 22.7305H40.5195V10.1523C40.5195 7.17995 38.1013 4.76172 35.1289 4.76172H10.7812C7.80886 4.76172 5.39062 7.17995 5.39062 10.1523V22.7305C2.41823 22.7305 0 25.1487 0 28.1211V38.0039H3.59375V41.2383H7.1875V38.0039H38.8125V41.2383H42.4062V38.0039H46V28.1211C46 25.1487 43.5818 22.7305 40.6094 22.7305ZM8.98438 10.1523C8.98438 9.16155 9.79045 8.35547 10.7812 8.35547H35.1289C36.1197 8.35547 36.9258 9.16155 36.9258 10.1523V22.7305H33.5117V20.0352C33.5117 17.0628 31.0935 14.6445 28.1211 14.6445H17.6992C14.7268 14.6445 12.3086 17.0628 12.3086 20.0352V22.7305H8.98438V10.1523ZM29.918 20.0352V22.7305H15.9023V20.0352C15.9023 19.0444 16.7084 18.2383 17.6992 18.2383H28.1211C29.1119 18.2383 29.918 19.0444 29.918 20.0352ZM42.4062 34.4102H3.59375V28.1211C3.59375 27.1303 4.39983 26.3242 5.39062 26.3242H40.6094C41.6002 26.3242 42.4062 27.1303 42.4062 28.1211V34.4102Z" fill="white"/>
</svg>
