<svg width="35" height="46" viewBox="0 0 35 46" fill="none" xmlns="http://www.w3.org/2000/svg">
<path d="M3.61328 17.0704C3.61328 24.5015 9.65879 30.547 17.0899 30.547C24.5209 30.547 30.5664 24.5015 30.5664 17.0704C30.5664 9.63931 24.5209 3.5938 17.0899 3.5938C9.65879 3.5938 3.61328 9.63931 3.61328 17.0704ZM17.0899 5.39068C23.5302 5.39068 28.7696 10.6301 28.7696 17.0704C28.7696 23.5107 23.5302 28.7501 17.0899 28.7501C10.6495 28.7501 5.41016 23.5107 5.41016 17.0704C5.41016 10.6301 10.6495 5.39068 17.0899 5.39068Z" fill="#6F717C"/>
<path d="M8.76988 15.4686L12.2524 18.8998L11.4512 23.7223C11.3954 24.0581 11.534 24.3964 11.8095 24.5965C12.0846 24.7965 12.4493 24.8236 12.7514 24.667L17.0903 22.4139L21.4288 24.667C21.7285 24.8225 22.0931 24.7983 22.3707 24.5965C22.6462 24.3964 22.7848 24.0581 22.729 23.7223L21.9278 18.8998L25.4103 15.4686C25.6528 15.2299 25.7395 14.8747 25.6342 14.5508C25.5289 14.2272 25.2499 13.991 24.9134 13.9402L20.0804 13.2126L17.8936 8.83941C17.7416 8.53513 17.4303 8.34281 17.0903 8.34281C16.7499 8.34281 16.4389 8.53513 16.2866 8.83941L14.0998 13.2126L9.26683 13.9402C8.93027 13.9907 8.65126 14.2272 8.54598 14.5508C8.44069 14.8747 8.52773 15.2299 8.76988 15.4686ZM14.8287 14.92C15.1179 14.8765 15.3678 14.6951 15.4987 14.4336L17.0903 11.2501L18.6818 14.4336C18.8128 14.6951 19.0626 14.8765 19.3518 14.92L22.8694 15.4496L20.3345 17.9466C20.1264 18.1519 20.0309 18.4457 20.0786 18.7342L20.6619 22.2441L17.504 20.6044C17.3745 20.537 17.2324 20.5033 17.0903 20.5033C16.9481 20.5033 16.806 20.537 16.6762 20.6044L13.5183 22.2441L14.1016 18.7342C14.1496 18.4457 14.0542 18.1519 13.8457 17.9466L11.3111 15.4496L14.8287 14.92Z" fill="#6F717C"/>
<path d="M17.9883 0.898431C17.9883 1.39468 17.5861 1.79687 17.0898 1.79687C16.5936 1.79687 16.1914 1.39468 16.1914 0.898431C16.1914 0.402184 16.5936 -7.62939e-06 17.0898 -7.62939e-06C17.5861 -7.62939e-06 17.9883 0.402184 17.9883 0.898431Z" fill="#6F717C"/>
<path d="M12.8556 0.529601C5.29786 2.45879 0.0195312 9.2606 0.0195312 17.0703C0.0195312 21.9209 2.05892 26.4913 5.63899 29.7282L0.226242 39.2674C0.0521698 39.5745 0.0739289 39.9549 0.281693 40.2399C0.489457 40.5252 0.844621 40.6624 1.19031 40.5905L7.33725 39.3141L9.49771 45.4021C9.61493 45.7334 9.91499 45.9653 10.2652 45.9966C10.6155 46.0278 10.9514 45.8513 11.1251 45.5456L17.0899 35.0591L23.0543 45.5456C23.215 45.8281 23.5141 45.9997 23.8348 45.9997C23.8612 45.9997 23.8878 45.9987 23.9141 45.9966C24.2644 45.9653 24.5645 45.733 24.682 45.4021L26.8421 39.3141L32.9891 40.5905C33.3344 40.6621 33.6899 40.5249 33.8977 40.2399C34.1058 39.9549 34.1272 39.5745 33.9531 39.2674L28.5404 29.7282C32.1205 26.4913 34.1599 21.9209 34.1599 17.0703C34.1599 9.2606 28.8815 2.45879 21.3241 0.529601C20.843 0.406767 20.3541 0.697005 20.2312 1.17781C20.1084 1.65862 20.3987 2.14784 20.8795 2.27068C27.6409 3.99666 32.3633 10.0825 32.3633 17.0703C32.3633 25.575 25.4562 32.3438 17.0899 32.3438C8.71754 32.3438 1.81641 25.5694 1.81641 17.0703C1.81641 10.0825 6.53848 3.99666 13.2999 2.27068C13.7807 2.14784 14.071 1.65862 13.9485 1.17781C13.8257 0.697005 13.3368 0.406767 12.8556 0.529601ZM10.5344 42.9503L8.76878 37.9748C8.61857 37.5516 8.17918 37.3042 7.73944 37.3954L2.76889 38.4276L7.05262 30.8779C9.55035 32.6937 12.5078 33.7999 15.5832 34.0737L10.5344 42.9503ZM26.44 37.3954C26.0006 37.3042 25.5608 37.5516 25.4106 37.9748L23.6453 42.9503L18.5962 34.0737C21.6719 33.7999 24.629 32.6937 27.1271 30.8779L31.4108 38.4276L26.44 37.3954Z" fill="#6F717C"/>
</svg>
