<svg width="46" height="46" viewBox="0 0 46 46" fill="none" xmlns="http://www.w3.org/2000/svg">
<g clip-path="url(#clip0)">
<path d="M9.61328 17.0704C9.61328 24.5015 15.6588 30.547 23.0899 30.547C30.5209 30.547 36.5664 24.5015 36.5664 17.0704C36.5664 9.63932 30.5209 3.59381 23.0899 3.59381C15.6588 3.59381 9.61328 9.63932 9.61328 17.0704ZM23.0899 5.39069C29.5302 5.39069 34.7696 10.6301 34.7696 17.0704C34.7696 23.5107 29.5302 28.7501 23.0899 28.7501C16.6495 28.7501 11.4102 23.5107 11.4102 17.0704C11.4102 10.6301 16.6495 5.39069 23.0899 5.39069Z" fill="#6F717C"/>
<path d="M14.7694 15.4686L18.2519 18.8998L17.4507 23.7223C17.3949 24.0582 17.5335 24.3965 17.809 24.5965C18.0841 24.7966 18.4488 24.8236 18.751 24.6671L23.0898 22.4139L27.4283 24.6671C27.728 24.8225 28.0926 24.7983 28.3702 24.5965C28.6457 24.3965 28.7843 24.0582 28.7285 23.7223L27.9273 18.8998L31.4098 15.4686C31.6523 15.2299 31.739 14.8748 31.6337 14.5508C31.5284 14.2273 31.2494 13.9911 30.9129 13.9402L26.0799 13.2127L23.8931 8.83943C23.7412 8.53516 23.4299 8.34283 23.0898 8.34283C22.7494 8.34283 22.4384 8.53516 22.2861 8.83943L20.0993 13.2127L15.2663 13.9402C14.9298 13.9907 14.6508 14.2273 14.5455 14.5508C14.4402 14.8748 14.5272 15.2299 14.7694 15.4686ZM20.8282 14.92C21.1174 14.8765 21.3673 14.6951 21.4982 14.4336L23.0898 11.2501L24.6814 14.4336C24.8123 14.6951 25.0621 14.8765 25.3513 14.92L28.8689 15.4496L26.334 17.9467C26.1259 18.152 26.0304 18.4457 26.0782 18.7342L26.6614 22.2441L23.5036 20.6044C23.3741 20.537 23.2319 20.5033 23.0898 20.5033C22.9476 20.5033 22.8055 20.537 22.6757 20.6044L19.5178 22.2441L20.1011 18.7342C20.1492 18.4457 20.0537 18.152 19.8452 17.9467L17.3106 15.4496L20.8282 14.92Z" fill="#6F717C"/>
<path d="M23.9883 0.898439C23.9883 1.39469 23.5861 1.79688 23.0898 1.79688C22.5936 1.79688 22.1914 1.39469 22.1914 0.898439C22.1914 0.402192 22.5936 0 23.0898 0C23.5861 0 23.9883 0.402192 23.9883 0.898439Z" fill="#6F717C"/>
<path d="M18.8556 0.529578C11.2979 2.45876 6.01953 9.26058 6.01953 17.0703C6.01953 21.9208 8.05892 26.4913 11.639 29.7281L6.22624 39.2674C6.05217 39.5745 6.07393 39.9549 6.28169 40.2399C6.48946 40.5252 6.84462 40.6624 7.19031 40.5905L13.3372 39.3141L15.4977 45.402C15.6149 45.7333 15.915 45.9653 16.2652 45.9965C16.6155 46.0278 16.9514 45.8512 17.1251 45.5456L23.0899 35.0591L29.0543 45.5456C29.215 45.8281 29.5141 45.9997 29.8348 45.9997C29.8612 45.9997 29.8878 45.9986 29.9141 45.9965C30.2644 45.9653 30.5645 45.733 30.682 45.402L32.8421 39.3141L38.9891 40.5905C39.3344 40.6621 39.6899 40.5248 39.8977 40.2399C40.1058 39.9549 40.1272 39.5745 39.9531 39.2674L34.5404 29.7281C38.1205 26.4913 40.1599 21.9208 40.1599 17.0703C40.1599 9.26058 34.8815 2.45876 27.3241 0.529578C26.843 0.406744 26.3541 0.696982 26.2312 1.17779C26.1084 1.65859 26.3987 2.14782 26.8795 2.27065C33.6409 3.99664 38.3633 10.0825 38.3633 17.0703C38.3633 25.575 31.4562 32.3438 23.0899 32.3438C14.7175 32.3438 7.81641 25.5693 7.81641 17.0703C7.81641 10.0825 12.5385 3.99664 19.2999 2.27065C19.7807 2.14782 20.071 1.65859 19.9485 1.17779C19.8257 0.696982 19.3368 0.406744 18.8556 0.529578ZM16.5344 42.9503L14.7688 37.9748C14.6186 37.5516 14.1792 37.3041 13.7394 37.3954L8.76889 38.4275L13.0526 30.8779C15.5504 32.6937 18.5078 33.7999 21.5832 34.0736L16.5344 42.9503ZM32.44 37.3954C32.0006 37.3041 31.5608 37.5516 31.4106 37.9748L29.6453 42.9503L24.5962 34.0736C27.6719 33.7999 30.629 32.6937 33.1271 30.8779L37.4108 38.4275L32.44 37.3954Z" fill="#6F717C"/>
</g>
<defs>
<clipPath id="clip0">
<rect width="46" height="46" fill="white"/>
</clipPath>
</defs>
</svg>
