<svg width="16" height="14" viewBox="0 0 16 14" fill="none" xmlns="http://www.w3.org/2000/svg">
<path d="M9.97112 13.3944L15.7449 7.62061C15.9096 7.45592 16 7.23622 16 6.99726C16 6.76298 15.9096 6.5434 15.7449 6.37872L9.97112 0.604804C9.62992 0.26373 9.0746 0.26373 8.73366 0.604804L8.20917 1.12903C8.04462 1.29371 7.95408 1.51342 7.95408 1.74783C7.95408 1.9821 8.04462 2.20936 8.20917 2.37391L11.5778 5.74978L0.87584 5.74978C0.393498 5.74978 2.60844e-06 6.12753 2.58735e-06 6.60988L2.55494e-06 7.35134C2.53386e-06 7.83368 0.393498 8.24968 0.87584 8.24968L11.6157 8.24968L8.20917 11.6447C8.04462 11.8092 7.95408 12.0231 7.95408 12.2575C7.95408 12.4919 8.04462 12.7083 8.20917 12.8732L8.73366 13.3958C9.07473 13.737 9.62992 13.7357 9.97112 13.3944Z" fill="white"/>
</svg>
