<svg width="14" height="14" viewBox="0 0 14 14" fill="none" xmlns="http://www.w3.org/2000/svg">
<g clip-path="url(#clip0)">
<path d="M8.72473 12.5949L13.7768 7.54284C13.9209 7.39874 14 7.20649 14 6.9974C14 6.79241 13.9209 6.60028 13.7768 6.45618L8.72473 1.404C8.42618 1.10557 7.94028 1.10557 7.64195 1.404L7.18303 1.8627C7.03904 2.0068 6.95982 2.19905 6.95982 2.40415C6.95982 2.60914 7.03904 2.80799 7.18303 2.95197L10.1305 5.90586L0.76636 5.90586C0.344312 5.90586 1.68633e-06 6.2364 1.66789e-06 6.65844L1.63953e-06 7.30722C1.62108e-06 7.72927 0.344311 8.09327 0.76636 8.09327L10.1638 8.09327L7.18303 11.0639C7.03904 11.2079 6.95982 11.395 6.95982 11.6001C6.95982 11.8052 7.03904 11.9946 7.18303 12.1388L7.64195 12.5962C7.94039 12.8947 8.42618 12.8936 8.72473 12.5949Z" fill="#191A1E"/>
</g>
<defs>
<clipPath id="clip0">
<rect x="14" width="14" height="14" transform="rotate(90 14 0)" fill="white"/>
</clipPath>
</defs>
</svg>
