<svg width="14" height="14" viewBox="0 0 14 14" fill="none" xmlns="http://www.w3.org/2000/svg">
<g clip-path="url(#clip0)">
<path d="M8.72473 12.5951L13.7768 7.54308C13.9209 7.39898 14 7.20674 14 6.99765C14 6.79266 13.9209 6.60053 13.7768 6.45643L8.72473 1.40425C8.42618 1.10581 7.94028 1.10581 7.64195 1.40425L7.18303 1.86295C7.03904 2.00705 6.95982 2.19929 6.95982 2.4044C6.95982 2.60939 7.03904 2.80823 7.18303 2.95222L10.1305 5.9061L0.76636 5.9061C0.344312 5.9061 1.68633e-06 6.23664 1.66789e-06 6.65869L1.63953e-06 7.30747C1.62108e-06 7.72952 0.344311 8.09352 0.76636 8.09352L10.1638 8.09352L7.18303 11.0641C7.03904 11.2081 6.95982 11.3952 6.95982 11.6003C6.95982 11.8055 7.03904 11.9949 7.18303 12.1391L7.64195 12.5964C7.94039 12.8949 8.42618 12.8938 8.72473 12.5951Z" fill="white"/>
</g>
<defs>
<clipPath id="clip0">
<rect x="14" width="14" height="14" transform="rotate(90 14 0)" fill="white"/>
</clipPath>
</defs>
</svg>
