<svg width="46" height="46" viewBox="0 0 46 46" fill="none" xmlns="http://www.w3.org/2000/svg">
<g clip-path="url(#clip0)">
<path d="M38.2734 0H7.72656C5.00187 0 2.78516 2.21671 2.78516 4.94141V11.3203C2.78516 14.045 5.00187 16.2617 7.72656 16.2617H9.32785L5.9048 41.4403C5.57696 43.8525 7.45461 46 9.8865 46C11.887 46 13.5988 44.5052 13.8683 42.5229L15.6064 29.7383H30.3887L32.1312 42.5243C32.4013 44.5058 34.1129 46 36.1126 46C38.5472 46 40.4225 43.8493 40.094 41.4392L36.6631 16.2617H38.2734C40.9981 16.2617 43.2148 14.045 43.2148 11.3203V4.94141C43.2148 2.21671 40.9981 0 38.2734 0V0ZM11.1976 42.1598C11.1089 42.8125 10.5452 43.3047 9.8865 43.3047C9.08419 43.3047 8.46723 42.5999 8.5755 41.8034L12.048 16.2617H14.7185L11.1976 42.1598ZM28.5523 16.2617L29.2869 21.6523H16.7057L17.4386 16.2617H28.5523ZM15.9729 27.043L16.3393 24.3477H29.6542L30.0215 27.043H15.9729ZM37.4235 41.803C37.5318 42.5982 36.9163 43.3047 36.1126 43.3047C35.4542 43.3047 34.8906 42.8127 34.8017 42.1603L31.2725 16.2617H33.9429L37.4235 41.803ZM40.5195 11.3203C40.5195 12.5588 39.5119 13.5664 38.2734 13.5664H7.72656C6.48807 13.5664 5.48047 12.5588 5.48047 11.3203V4.94141C5.48047 3.70291 6.48807 2.69531 7.72656 2.69531H38.2734C39.5119 2.69531 40.5195 3.70291 40.5195 4.94141V11.3203Z" fill="white"/>
</g>
<defs>
<clipPath id="clip0">
<rect width="46" height="46" fill="white"/>
</clipPath>
</defs>
</svg>
