<svg width="46" height="46" viewBox="0 0 46 46" fill="none" xmlns="http://www.w3.org/2000/svg">
<path d="M19.0469 43.3076C18.9039 43.3076 18.7668 43.2508 18.6657 43.1497C18.5646 43.0486 18.5078 42.9115 18.5078 42.7685V3.24121C18.5078 3.09824 18.5646 2.96113 18.6657 2.86004C18.7668 2.75894 18.9039 2.70215 19.0469 2.70215C19.1898 2.70215 19.327 2.75894 19.4281 2.86004C19.5291 2.96113 19.5859 3.09824 19.5859 3.24121V42.7685C19.5859 42.9115 19.5291 43.0486 19.4281 43.1497C19.327 43.2508 19.1898 43.3076 19.0469 43.3076Z" fill="white"/>
<path d="M42.3702 0.895569H3.63135C3.15479 0.895569 2.69774 1.08488 2.36077 1.42186C2.02379 1.75884 1.83447 2.21588 1.83447 2.69244V43.3072C1.83447 43.7838 2.02379 44.2408 2.36077 44.5778C2.69774 44.9148 3.15479 45.1041 3.63135 45.1041H42.3702C42.8467 45.1041 43.3038 44.9148 43.6408 44.5778C43.9777 44.2408 44.167 43.7838 44.167 43.3072V2.69244C44.167 2.45647 44.1206 2.22282 44.0303 2.00481C43.94 1.7868 43.8076 1.58872 43.6408 1.42186C43.4739 1.25501 43.2758 1.12265 43.0578 1.03235C42.8398 0.942046 42.6061 0.895569 42.3702 0.895569ZM18.5095 42.2237H5.33335C5.14272 42.2237 4.95991 42.148 4.82511 42.0132C4.69032 41.8784 4.6146 41.6956 4.6146 41.5049V31.685H18.5077L18.5095 42.2237ZM18.5095 30.6062H4.6146V16.1119H18.5077L18.5095 30.6062ZM18.5095 15.033H4.6146V4.49435C4.6146 4.30373 4.69032 4.12091 4.82511 3.98612C4.95991 3.85133 5.14272 3.7756 5.33335 3.7756H18.5077L18.5095 15.033ZM40.6682 42.2237H19.5858V10.6016H41.3851V41.5057C41.3851 41.6963 41.3094 41.8791 41.1746 42.0139C41.0398 42.1487 40.857 42.2244 40.6664 42.2244L40.6682 42.2237ZM41.3869 9.52272H19.5858V3.7756H40.6664C40.857 3.7756 41.0398 3.85133 41.1746 3.98612C41.3094 4.12091 41.3851 4.30373 41.3851 4.49435L41.3869 9.52272Z" fill="white"/>
<path d="M17.3102 12.024C17.3094 11.5675 17.1277 11.13 16.8049 10.8073C16.4821 10.4846 16.0445 10.303 15.5881 10.3022H7.532C7.19512 10.3012 6.86541 10.3994 6.58392 10.5845C6.30243 10.7695 6.08158 11.0333 5.94889 11.3429C5.81619 11.6525 5.7775 11.9944 5.83765 12.3258C5.89779 12.6573 6.0541 12.9637 6.28712 13.207C6.0541 13.4503 5.89779 13.7568 5.83765 14.0882C5.7775 14.4197 5.81619 14.7615 5.94889 15.0711C6.08158 15.3808 6.30243 15.6445 6.58392 15.8296C6.86541 16.0146 7.19512 16.1128 7.532 16.1119H15.5881C15.925 16.1129 16.2548 16.0148 16.5363 15.8297C16.8179 15.6447 17.0388 15.381 17.1715 15.0713C17.3042 14.7617 17.343 14.4198 17.2828 14.0883C17.2227 13.7568 17.0664 13.4503 16.8333 13.207C17.1387 12.8888 17.3095 12.465 17.3102 12.024ZM7.532 11.3803H15.5881C15.6739 11.3783 15.7593 11.3934 15.8392 11.4249C15.9191 11.4563 15.9919 11.5034 16.0533 11.5634C16.1147 11.6234 16.1635 11.6951 16.1968 11.7742C16.2302 11.8533 16.2473 11.9383 16.2473 12.0241C16.2473 12.11 16.2302 12.195 16.1968 12.2741C16.1635 12.3532 16.1147 12.4249 16.0533 12.4849C15.9919 12.5448 15.9191 12.5919 15.8392 12.6234C15.7593 12.6548 15.6739 12.67 15.5881 12.668H7.532C7.36388 12.664 7.20398 12.5944 7.08648 12.4741C6.96899 12.3538 6.90321 12.1923 6.90321 12.0241C6.90321 11.856 6.96899 11.6945 7.08648 11.5742C7.20398 11.4539 7.36388 11.3843 7.532 11.3803Z" fill="white"/>
<path d="M16.9388 26.4141C17.1718 26.1708 17.3281 25.8643 17.3883 25.5329C17.4484 25.2014 17.4097 24.8596 17.277 24.5499C17.1444 24.2403 16.9235 23.9765 16.642 23.7915C16.3605 23.6064 16.0308 23.5083 15.6939 23.5092H7.63782C7.30092 23.5082 6.97116 23.6063 6.68961 23.7913C6.40806 23.9764 6.18716 24.2401 6.05442 24.5498C5.92168 24.8594 5.88297 25.2013 5.9431 25.5328C6.00323 25.8643 6.15955 26.1708 6.39259 26.4141C6.08666 26.7318 5.91575 27.1558 5.91575 27.5969C5.91575 28.0381 6.08666 28.462 6.39259 28.7798C6.1596 29.0232 6.00332 29.3297 5.94322 29.6612C5.88312 29.9927 5.92184 30.3345 6.05456 30.6442C6.18729 30.9538 6.40816 31.2176 6.68968 31.4027C6.97119 31.5877 7.30092 31.6859 7.63782 31.685H15.6939C16.0308 31.6859 16.3605 31.5876 16.642 31.4025C16.9234 31.2174 17.1442 30.9536 17.2769 30.644C17.4096 30.3344 17.4483 29.9925 17.3882 29.6611C17.328 29.3296 17.1718 29.0231 16.9388 28.7798C17.2447 28.462 17.4157 28.0381 17.4157 27.5969C17.4157 27.1558 17.2447 26.7318 16.9388 26.4141ZM6.99382 27.5971C6.99402 27.4264 7.06193 27.2627 7.18266 27.142C7.30339 27.0212 7.46708 26.9533 7.63782 26.9531H15.6939C15.8621 26.9571 16.0219 27.0267 16.1394 27.147C16.2569 27.2673 16.3227 27.4288 16.3227 27.5969C16.3227 27.7651 16.2569 27.9266 16.1394 28.0469C16.0219 28.1672 15.8621 28.2368 15.6939 28.2408H7.63782C7.46715 28.2406 7.30351 28.1727 7.18279 28.0521C7.06206 27.9314 6.99411 27.7678 6.99382 27.5971Z" fill="white"/>
<path d="M40.5855 20.9289C40.298 19.817 39.5272 17.1196 38.6126 16.1094C38.0719 15.4808 37.4067 14.9712 36.659 14.6129C36.4893 14.5342 36.3041 14.4945 36.117 14.4969C35.9299 14.4992 35.7457 14.5436 35.578 14.6266C35.1004 14.2438 34.5718 13.8043 34.2002 13.4644C34.3604 13.2341 34.5045 12.9929 34.6314 12.7427C35.3707 11.2485 35.2406 9.96872 34.2915 9.40271C34.0498 9.25839 33.778 9.1721 33.4974 9.15065C33.2168 9.1292 32.935 9.17316 32.6743 9.27908C32.4348 9.37622 32.2216 9.52832 32.0518 9.7231C31.882 9.91788 31.7603 10.1499 31.6968 10.4003C31.6793 10.469 31.6756 10.5403 31.6857 10.6104C31.6959 10.6805 31.7197 10.7479 31.7559 10.8087C31.7921 10.8696 31.8399 10.9227 31.8967 10.9651C31.9534 11.0074 32.0179 11.0382 32.0865 11.0557C32.1551 11.0731 32.2265 11.0768 32.2966 11.0667C32.3667 11.0565 32.434 11.0327 32.4949 10.9965C32.5557 10.9603 32.6089 10.9125 32.6512 10.8558C32.6936 10.799 32.7244 10.7345 32.7418 10.6659C32.7644 10.578 32.8075 10.4967 32.8675 10.4286C32.9275 10.3605 33.0028 10.3076 33.0872 10.2742C33.1928 10.232 33.3067 10.2148 33.42 10.2241C33.5333 10.2334 33.6429 10.2689 33.7402 10.3277C34.2433 10.6282 34.0147 11.5582 33.6658 12.2637C33.4963 12.5937 33.2953 12.9066 33.0656 13.1981C32.6584 13.7117 32.2103 14.1915 31.7255 14.6327C31.5675 14.5825 31.4012 14.5641 31.236 14.5786C31.0709 14.5931 30.9103 14.6402 30.7635 14.7171C30.6812 14.7613 30.5838 14.8109 30.476 14.8656C30.3002 14.9547 30.0889 15.0629 29.8672 15.1858C29.7469 14.9748 29.5728 14.7996 29.3626 14.678C29.1524 14.5563 28.9137 14.4927 28.6708 14.4936H28.1095C27.4019 14.0178 26.8434 13.6175 26.4876 13.3318C26.6766 13.1055 26.841 12.8597 26.9778 12.5986C27.7365 11.0972 27.6279 9.90332 26.677 9.32401C26.4136 9.17521 26.1171 9.09473 25.8146 9.08989C25.5121 9.08506 25.2132 9.15603 24.9452 9.29633C24.6782 9.42627 24.4487 9.62196 24.2781 9.86499C24.1076 10.108 24.0016 10.3904 23.9702 10.6857C23.9633 10.7562 23.9704 10.8273 23.9911 10.8951C24.0117 10.9628 24.0455 11.0258 24.0904 11.0805C24.1813 11.191 24.3123 11.2608 24.4546 11.2747C24.597 11.2886 24.739 11.2453 24.8495 11.1545C24.96 11.0636 25.0298 10.9326 25.0437 10.7903C25.0573 10.676 25.1 10.5672 25.1679 10.4743C25.2357 10.3814 25.3264 10.3075 25.4311 10.2598C25.536 10.2014 25.6537 10.1696 25.7738 10.1672C25.8939 10.1649 26.0128 10.192 26.12 10.2462C26.6989 10.5998 26.2407 11.6689 26.0161 12.1149C25.8334 12.4434 25.6054 12.7445 25.3387 13.0094C24.8083 13.5502 24.2344 14.0464 23.6227 14.4933H23.1401C22.8545 14.4933 22.576 14.5816 22.3427 14.7461C22.1093 14.9106 21.9325 15.1433 21.8366 15.4122C20.9374 18.0362 20.5544 20.8094 20.7085 23.579C20.7944 24.8368 20.9087 27.9763 20.9601 35.7934V35.8904C20.9603 36.0995 21.0333 36.3019 21.1667 36.4629C21.3 36.6239 21.4853 36.7333 21.6907 36.7724C22.0903 36.8402 22.4951 36.8719 22.9004 36.8672C23.446 36.865 23.9908 36.826 24.5312 36.7504C24.7308 36.7194 24.9142 36.622 25.0517 36.4739C25.1891 36.3258 25.2727 36.1357 25.2888 35.9343L25.7559 30.2393L26.1732 35.9598C26.1861 36.1537 26.2616 36.3383 26.3882 36.4857C26.5149 36.6331 26.686 36.7354 26.8758 36.7774C27.8247 36.906 28.7873 36.8953 29.7331 36.7454C29.9467 36.7201 30.1441 36.6193 30.2897 36.4611C30.4353 36.3029 30.5195 36.0978 30.527 35.8829L30.5338 35.6791C30.5651 34.6998 30.637 32.4448 30.7247 30.1009C31.4937 30.1631 32.3778 30.1951 33.3441 30.1951C34.869 30.1951 36.5861 30.1185 38.3226 29.9661C38.3933 29.96 38.462 29.9399 38.525 29.907C38.5879 29.8742 38.6437 29.8293 38.6892 29.7748C38.7347 29.7204 38.769 29.6574 38.7902 29.5897C38.8113 29.5219 38.8189 29.4507 38.8124 29.38L38.2137 22.8322C38.206 22.753 38.2276 22.6738 38.2743 22.6094C38.3211 22.5451 38.3897 22.5001 38.4674 22.4829C39.0382 22.3804 39.592 22.1996 40.1133 21.9456C40.2971 21.8565 40.4445 21.7066 40.5305 21.5214C40.6166 21.3361 40.636 21.1269 40.5855 20.9289ZM33.5364 14.3164C33.8721 14.619 34.2767 14.9572 34.6113 15.2296C34.3042 15.3782 33.9682 15.4572 33.6271 15.461C33.286 15.4649 32.9483 15.3935 32.638 15.2519C32.9089 14.9946 33.2238 14.6751 33.5364 14.3164ZM25.7506 14.1213C25.8868 14.2327 26.0463 14.3563 26.231 14.4936H25.3405C25.4846 14.3675 25.6233 14.2431 25.7506 14.1213ZM29.9592 23.8313C29.8769 24.8716 29.7849 26.6703 29.6717 29.4914C29.5743 32.0354 29.492 34.5856 29.4589 35.645V35.6917C28.725 35.797 27.9813 35.8159 27.243 35.7481L26.355 23.6135C26.3577 23.5896 26.3587 23.5656 26.3579 23.5416L26.2433 21.79C26.2381 21.7101 26.215 21.6323 26.1757 21.5625L25.3696 20.1336C25.2976 20.0081 25.1792 19.9158 25.0398 19.8765C24.9004 19.8373 24.7513 19.8542 24.6243 19.9238C24.5616 19.9573 24.5062 20.003 24.4615 20.0582C24.4167 20.1134 24.3834 20.177 24.3635 20.2453C24.3436 20.3135 24.3376 20.3851 24.3457 20.4557C24.3538 20.5263 24.3759 20.5946 24.4108 20.6565L25.1562 21.9787L25.2428 23.3051L24.2275 35.7036C23.502 35.8046 22.7668 35.8157 22.0386 35.7366C21.9854 27.9281 21.8704 24.7757 21.7831 23.5049C21.6382 20.8817 22.0014 18.2552 22.8529 15.7698C22.874 15.7107 22.913 15.6598 22.9646 15.6242C23.0162 15.5885 23.0777 15.5701 23.1404 15.5714H28.6708C28.7343 15.5713 28.7962 15.5912 28.8478 15.6282C28.8994 15.6652 28.9381 15.7175 28.9583 15.7777L29.0661 16.1334C29.7994 18.6299 30.1015 21.2332 29.9592 23.8313Z" fill="white"/>
<path d="M11.2126 41.9251C11.0885 41.0653 11.0553 40.1949 11.1134 39.3282C11.1178 39.1568 11.1096 38.9853 11.089 38.815C10.9664 37.6931 10.2984 36.8773 9.42581 36.7842C9.11867 36.7446 8.80659 36.7919 8.52495 36.9207C8.24331 37.0494 8.00337 37.2545 7.83234 37.5127C7.52542 37.9555 7.35466 38.4784 7.34107 39.017C7.33137 39.1608 7.32634 39.3099 7.32095 39.4637C7.31797 39.8285 7.28601 40.1925 7.22535 40.5523C7.06004 41.2426 6.92204 41.7835 6.81531 42.1594C6.77774 42.2929 6.77161 42.4334 6.7974 42.5697C6.82319 42.706 6.88019 42.8345 6.96395 42.9451C7.04771 43.0557 7.15594 43.1454 7.28016 43.2072C7.40439 43.2689 7.54123 43.3011 7.67996 43.3011H10.3728C10.5002 43.3009 10.6262 43.2737 10.7423 43.2211C10.8584 43.1686 10.962 43.0921 11.0464 42.9965C11.1307 42.9009 11.1937 42.7886 11.2314 42.6668C11.269 42.545 11.2804 42.4167 11.2647 42.2902C11.2486 42.1587 11.2292 42.0419 11.2126 41.9251ZM9.73343 42.223C9.73334 41.7898 9.77607 41.3576 9.86101 40.9328C9.89151 40.7931 9.86525 40.647 9.78802 40.5266C9.71078 40.4063 9.58889 40.3215 9.44917 40.291C9.30944 40.2605 9.16332 40.2868 9.04295 40.364C8.92258 40.4412 8.83782 40.5631 8.80732 40.7028C8.70604 41.2032 8.655 41.7125 8.65495 42.223H7.91464C8.01454 41.8546 8.13529 41.3752 8.27724 40.7808C8.35218 40.3579 8.39232 39.9295 8.39728 39.5C8.40195 39.3588 8.40662 39.2222 8.41525 39.0925C8.41567 38.7569 8.51505 38.4289 8.70095 38.1495C8.76121 38.0437 8.85247 37.9589 8.96242 37.9066C9.07238 37.8543 9.19573 37.8369 9.31584 37.8569C9.59975 37.8871 9.93971 38.2364 10.0166 38.9419C10.0314 39.0611 10.0373 39.1812 10.0342 39.3013C9.97352 40.2317 10.0107 41.1659 10.1453 42.0886C10.1525 42.1328 10.1593 42.1774 10.1661 42.2226L9.73343 42.223Z" fill="white"/>
<path d="M16.321 42.1597C16.2132 41.7835 16.0763 41.2426 15.916 40.5749C15.8522 40.2079 15.8185 39.8362 15.8154 39.4637C15.81 39.3099 15.8049 39.1615 15.7949 39.0141C15.7811 38.4766 15.6106 37.9549 15.3043 37.513C15.133 37.2538 14.8922 37.0481 14.6095 36.9194C14.3267 36.7906 14.0134 36.744 13.7055 36.7849C12.8361 36.8773 12.1699 37.6931 12.0484 38.805C12.027 38.979 12.0186 39.1544 12.0232 39.3297C12.0812 40.1959 12.0478 41.0658 11.9237 41.9251C11.9057 42.0419 11.8877 42.1587 11.8716 42.2902C11.8559 42.4167 11.8673 42.545 11.9049 42.6668C11.9426 42.7885 12.0056 42.9009 12.0899 42.9965C12.1743 43.0921 12.2779 43.1686 12.394 43.2211C12.5102 43.2737 12.6361 43.3009 12.7635 43.3011H15.4563C15.595 43.3011 15.7318 43.2689 15.856 43.2072C15.9802 43.1454 16.0884 43.0558 16.1722 42.9452C16.2559 42.8346 16.3129 42.7062 16.3388 42.5699C16.3646 42.4337 16.3585 42.2933 16.321 42.1597ZM14.4814 42.223C14.4813 41.7125 14.4303 41.2032 14.329 40.7028C14.2985 40.5631 14.2137 40.4412 14.0934 40.364C13.973 40.2867 13.8269 40.2605 13.6871 40.291C13.5474 40.3215 13.4255 40.4062 13.3483 40.5266C13.2711 40.647 13.2448 40.7931 13.2753 40.9328C13.3602 41.3576 13.403 41.7898 13.4029 42.223H12.9688C12.9756 42.1777 12.9824 42.1331 12.9896 42.0889C13.1241 41.1669 13.1614 40.2333 13.101 39.3034C13.0976 39.1794 13.1038 39.0553 13.1193 38.9322C13.1952 38.2364 13.5351 37.8871 13.8136 37.8577C13.9346 37.8362 14.0592 37.8528 14.1704 37.9051C14.2815 37.9574 14.3737 38.0429 14.4343 38.1498C14.6196 38.4283 14.7187 38.7551 14.7193 39.0896C14.7283 39.2222 14.7329 39.3588 14.7376 39.5C14.7429 39.9372 14.7846 40.3732 14.8623 40.8035C15.0007 41.3785 15.1203 41.8554 15.2217 42.223H14.4814Z" fill="white"/>
</svg>
