<svg width="74" height="74" viewBox="0 0 74 74" fill="none" xmlns="http://www.w3.org/2000/svg">
<path d="M71.832 17.488H2.16797C0.970672 17.488 0 18.4587 0 19.656V45.6716C0 46.8689 0.970672 47.8396 2.16797 47.8396H7.33207L4.56488 53.374C4.02939 54.445 4.46341 55.7472 5.53439 56.2827C6.60667 56.8187 7.90817 56.3825 8.44294 55.3132L12.1796 47.8397H61.8204L65.5571 55.3132C66.0915 56.3823 67.3929 56.819 68.4656 56.2827C69.5366 55.7472 69.9706 54.445 69.4351 53.374L66.6679 47.8396H71.832C73.0293 47.8396 74 46.8689 74 45.6716V19.656C74 18.4587 73.0293 17.488 71.832 17.488ZM43.3594 43.5037H26.0156V21.824H43.3594V43.5037ZM47.6953 30.4958H69.6641V34.8318H47.6953V30.4958ZM69.6641 26.1599H47.6953V21.824H69.6641V26.1599ZM4.33594 21.824H21.6797V43.5037H4.33594V21.824ZM47.6953 43.5037V39.1677H69.6641V43.5037H47.6953Z" fill="white"/>
<path d="M36.8555 30.4958C38.0528 30.4958 39.0234 29.5252 39.0234 28.3279C39.0234 27.1305 38.0528 26.1599 36.8555 26.1599C35.6581 26.1599 34.6875 27.1305 34.6875 28.3279C34.6875 29.5252 35.6581 30.4958 36.8555 30.4958Z" fill="white"/>
<path d="M15.1758 30.4958C16.3731 30.4958 17.3438 29.5252 17.3438 28.3279C17.3438 27.1305 16.3731 26.1599 15.1758 26.1599C13.9784 26.1599 13.0078 27.1305 13.0078 28.3279C13.0078 29.5252 13.9784 30.4958 15.1758 30.4958Z" fill="white"/>
</svg>
