<svg width="46" height="46" viewBox="0 0 46 46" fill="none" xmlns="http://www.w3.org/2000/svg">
<g clip-path="url(#clip0)">
<path d="M34.845 4.6C34.5773 4.59906 34.3145 4.52829 34.0826 4.39467C33.8506 4.26105 33.6576 4.06921 33.5225 3.83812C33.3903 3.60338 33.1983 3.40787 32.966 3.27151C32.7337 3.13515 32.4694 3.06281 32.2 3.06187H13.8C13.5306 3.06281 13.2663 3.13515 13.034 3.27151C12.8016 3.40787 12.6096 3.60338 12.4775 3.83812C12.2628 4.16871 11.9293 4.40425 11.546 4.49611C11.1627 4.58798 10.7587 4.52916 10.4175 4.3318C10.0762 4.13444 9.82379 3.81361 9.71226 3.43552C9.60073 3.05743 9.63862 2.65096 9.81811 2.3C10.2183 1.59801 10.7979 1.01506 11.4977 0.610901C12.1974 0.206739 12.9919 -0.00409888 13.8 -2.46155e-06H32.2C33.008 -0.00409888 33.8026 0.206739 34.5023 0.610901C35.202 1.01506 35.7817 1.59801 36.1819 2.3C36.3147 2.53293 36.3843 2.79654 36.3838 3.06468C36.3834 3.33283 36.3128 3.59619 36.1791 3.82864C36.0455 4.0611 35.8533 4.25458 35.6218 4.38988C35.3903 4.52519 35.1275 4.59762 34.8594 4.6H34.845Z" fill="white"/>
<path d="M29.124 38.3237C29.124 37.5195 28.9656 36.7232 28.6578 35.9803C28.3501 35.2373 27.899 34.5622 27.3304 33.9936C26.7617 33.4249 26.0866 32.9738 25.3437 32.6661C24.6007 32.3583 23.8044 32.2 23.0002 32.2C22.196 32.2 21.3997 32.3583 20.6568 32.6661C19.9138 32.9738 19.2387 33.4249 18.6701 33.9936C18.1014 34.5622 17.6504 35.2373 17.3426 35.9803C17.0349 36.7232 16.8765 37.5195 16.8765 38.3237V44.4619C16.8765 44.8698 17.0385 45.261 17.327 45.5495C17.6154 45.8379 18.0067 46 18.4146 46H27.6002C28.0082 46 28.3994 45.8379 28.6878 45.5495C28.9763 45.261 29.1383 44.8698 29.1383 44.4619V38.3237H29.124ZM23.0002 35.2618C23.8123 35.2618 24.5911 35.5844 25.1653 36.1586C25.7395 36.7329 26.0621 37.5117 26.0621 38.3237V42.9381H19.9383V38.3237C19.9383 37.5117 20.2609 36.7329 20.8351 36.1586C21.4094 35.5844 22.1882 35.2618 23.0002 35.2618Z" fill="white"/>
<path d="M45.9998 21.8931L44.5623 15.1225V10.7381C44.5623 9.51813 44.0776 8.3481 43.215 7.48543C42.3523 6.62276 41.1823 6.13812 39.9623 6.13812H6.1379C4.9179 6.13812 3.74787 6.62276 2.88521 7.48543C2.02254 8.3481 1.5379 9.51813 1.5379 10.7381V15.1656L-0.000228519 21.8931C-0.0129447 22.003 -0.0129447 22.1139 -0.000228519 22.2237C0.000879791 23.7954 0.544148 25.3186 1.5379 26.5362V41.4C1.5379 42.62 2.02254 43.79 2.88521 44.6527C3.74787 45.5154 4.9179 46 6.1379 46H12.276C12.6565 45.9631 13.0095 45.7859 13.2664 45.5028C13.5233 45.2198 13.6656 44.8513 13.6656 44.4691C13.6656 44.0868 13.5233 43.7183 13.2664 43.4353C13.0095 43.1523 12.6565 42.975 12.276 42.9381H6.1379C5.72996 42.9381 5.33873 42.7761 5.05028 42.4876C4.76182 42.1992 4.59977 41.8079 4.59977 41.4V28.75C5.33583 29.0253 6.11397 29.1712 6.89977 29.1812C7.93268 29.1762 8.95117 28.9384 9.87947 28.4854C10.8078 28.0325 11.622 27.3761 12.2616 26.565C12.8989 27.3806 13.7136 28.0403 14.6439 28.494C15.5742 28.9477 16.5957 29.1835 17.6307 29.1835C18.6657 29.1835 19.6872 28.9477 20.6175 28.494C21.5478 28.0403 22.3625 27.3806 22.9998 26.565C23.6371 27.3806 24.4518 28.0403 25.3821 28.494C26.3124 28.9477 27.3338 29.1835 28.3688 29.1835C29.4039 29.1835 30.4253 28.9477 31.3556 28.494C32.2859 28.0403 33.1006 27.3806 33.7379 26.565C34.6143 27.6996 35.8309 28.5239 37.2096 28.917C38.5884 29.3102 40.0567 29.2517 41.3998 28.75V41.4C41.3998 41.8079 41.2377 42.1992 40.9493 42.4876C40.6608 42.7761 40.2696 42.9381 39.8616 42.9381H33.7379C33.3575 42.975 33.0044 43.1523 32.7475 43.4353C32.4906 43.7183 32.3483 44.0868 32.3483 44.4691C32.3483 44.8513 32.4906 45.2198 32.7475 45.5028C33.0044 45.7859 33.3575 45.9631 33.7379 46H39.876C41.096 46 42.266 45.5154 43.1287 44.6527C43.9914 43.79 44.476 42.62 44.476 41.4V26.5219C45.4698 25.3042 46.013 23.7811 46.0141 22.2094C46.021 22.1037 46.0162 21.9977 45.9998 21.8931ZM6.89977 26.0619C5.90865 26.0627 4.95563 25.6801 4.24022 24.9942C3.52481 24.3082 3.10248 23.3722 3.06165 22.3819L4.31227 16.8619H10.7379V22.2669C10.7265 23.2773 10.3172 24.2425 9.5986 24.953C8.88004 25.6635 7.91028 26.0619 6.89977 26.0619ZM17.6379 26.0619C16.6274 26.0619 15.6576 25.6635 14.9391 24.953C14.2205 24.2425 13.8111 23.2773 13.7998 22.2669V16.8619H21.4616V22.2669C21.4503 23.2748 21.0429 24.2379 20.3275 24.948C19.612 25.658 18.6459 26.0582 17.6379 26.0619ZM28.376 26.0619C27.3655 26.0619 26.3958 25.6635 25.6772 24.953C24.9586 24.2425 24.5493 23.2773 24.5379 22.2669V16.8619H32.1998V22.2669C32.1885 23.2748 31.7811 24.2379 31.0656 24.948C30.3501 25.658 29.384 26.0582 28.376 26.0619ZM33.7379 13.8H4.59977V10.7381C4.59977 10.3302 4.76182 9.93896 5.05028 9.6505C5.33873 9.36205 5.72996 9.2 6.1379 9.2H39.8616C40.2696 9.2 40.6608 9.36205 40.9493 9.6505C41.2377 9.93896 41.3998 10.3302 41.3998 10.7381V13.8H33.7379ZM39.0998 26.0619C38.0893 26.0619 37.1195 25.6635 36.4009 24.953C35.6824 24.2425 35.273 23.2773 35.2617 22.2669V16.8619H41.6873L42.9091 22.3819C42.8685 23.3672 42.4502 24.2991 41.741 24.9843C41.0317 25.6694 40.0859 26.0553 39.0998 26.0619Z" fill="white"/>
</g>
<defs>
<clipPath id="clip0">
<rect width="46" height="46" fill="white"/>
</clipPath>
</defs>
</svg>
