<svg width="60" height="60" viewBox="0 0 60 60" fill="none" xmlns="http://www.w3.org/2000/svg">
<g clip-path="url(#clip0)">
<path d="M56.7452 31.1713L59.9533 16.611C60.1933 15.5229 59.5053 14.4456 58.4172 14.2069C57.3292 13.9642 56.2532 14.6536 56.0145 15.7416L53.1545 28.7192H40.2915C39.1781 28.7192 38.2755 29.6219 38.2755 30.7366C38.2755 31.8513 39.1781 32.754 40.2915 32.754H41.0555L36.7114 43.0382C36.2781 44.0662 36.7568 45.2476 37.7848 45.6809C38.0381 45.7889 38.3075 45.8409 38.5688 45.8409C39.3555 45.8409 40.1022 45.3769 40.4275 44.6076L44.3929 35.2234L50.6824 35.2247L54.6438 44.6076C55.0798 45.6343 56.2639 46.1103 57.2865 45.6809C58.3132 45.2476 58.7933 44.0649 58.3599 43.0382L54.0171 32.754H54.7812C55.7225 32.7526 56.5385 32.0966 56.7452 31.1713Z" fill="white"/>
<path d="M18.9441 32.7527H19.7081C20.8215 32.7527 21.7242 31.85 21.7242 30.7353C21.7242 29.6206 20.8215 28.7179 19.7081 28.7179H6.84518L3.98645 15.7416C3.74512 14.6536 2.66642 13.9629 1.58373 14.2069C0.497043 14.4456 -0.192305 15.523 0.0477 16.611L3.25577 31.1713C3.45978 32.0953 4.27846 32.754 5.22515 32.754H5.98917L1.64507 43.0409C1.21173 44.0676 1.69174 45.2476 2.71843 45.681C3.74245 46.113 4.92647 45.633 5.36115 44.6076L9.32257 35.2247L15.612 35.2234L19.5748 44.6076C19.9001 45.377 20.6468 45.841 21.4335 45.841C21.6948 45.841 21.9615 45.789 22.2175 45.681C23.2442 45.2476 23.7242 44.0649 23.2909 43.0409L18.9441 32.7527Z" fill="white"/>
<path d="M33.1498 41.8049H32.0137V24.4112H42.854C43.9673 24.4112 44.8713 23.5085 44.8713 22.3951C44.8713 21.2818 43.9673 20.3777 42.854 20.3777H17.1414C16.028 20.3777 15.124 21.2818 15.124 22.3951C15.124 23.5071 16.028 24.4112 17.1414 24.4112H27.9816V41.8049H26.8456C25.7323 41.8049 24.8296 42.7102 24.8296 43.8236C24.8296 44.937 25.7323 45.841 26.8456 45.841H33.1498C34.2658 45.841 35.1685 44.937 35.1685 43.8236C35.1685 42.7102 34.2658 41.8049 33.1498 41.8049Z" fill="white"/>
</g>
<defs>
<clipPath id="clip0">
<rect width="60" height="60" fill="white"/>
</clipPath>
</defs>
</svg>
