<svg width="46" height="46" viewBox="0 0 46 46" fill="none" xmlns="http://www.w3.org/2000/svg">
<path d="M18.8672 32.4336H16.1719V35.1289H18.8672V32.4336Z" fill="white"/>
<path d="M8.08594 32.4336H5.39062V35.1289H8.08594V32.4336Z" fill="white"/>
<path d="M18.8672 10.8711H16.1719V13.5664H18.8672V10.8711Z" fill="white"/>
<path d="M8.08594 10.8711H5.39062V13.5664H8.08594V10.8711Z" fill="white"/>
<path d="M40.6094 32.4336H26.9531V35.1289H40.6094V32.4336Z" fill="white"/>
<path d="M13.4766 27.043V24.3477H10.7812V27.043H8.08594V21.6523H5.39062V27.043H2.69531V24.3477H0V46H46V27.043H13.4766ZM10.7812 43.3047H2.69531V29.7383H10.7812V43.3047ZM21.5625 43.3047H13.4766V29.7383H21.5625V43.3047ZM43.3047 43.3047H24.2578V29.7383H43.3047V43.3047Z" fill="white"/>
<path d="M37.8242 10.1775V0H29.7383V10.1775L24.2578 14.0922V0H0V18.957H46V16.0173L37.8242 10.1775ZM10.7812 16.2617H2.69531V2.69531H10.7812V16.2617ZM21.5625 16.2617H13.4766V2.69531H21.5625V16.2617ZM25.8577 16.2617L32.4336 11.5647V2.69531H35.1289V11.5647L41.7048 16.2617H25.8577Z" fill="white"/>
</svg>
