<svg width="52" height="40" viewBox="0 0 52 40" fill="none" xmlns="http://www.w3.org/2000/svg">
<path d="M45.8594 9.14062V6.09375C45.8594 2.73366 43.1257 0 39.7656 0H27.375C24.0149 0 21.2812 2.73366 21.2812 6.09375V9.14062C17.9212 9.14062 15.1875 11.8743 15.1875 15.2344V39.6094H18.2344V36.5625H48.9062V39.6094H51.9531V15.2344C51.9531 11.8743 49.2195 9.14062 45.8594 9.14062ZM24.3281 6.09375C24.3281 4.4137 25.695 3.04688 27.375 3.04688H39.7656C41.4457 3.04688 42.8125 4.4137 42.8125 6.09375V19.1011C41.9154 18.5808 40.8752 18.2812 39.7656 18.2812H27.375C26.2654 18.2812 25.2252 18.5808 24.3281 19.1011V6.09375ZM24.3281 24.375C24.3281 22.695 25.695 21.3281 27.375 21.3281H39.7656C41.4457 21.3281 42.8125 22.695 42.8125 24.375V27.4219H24.3281V24.375ZM48.9062 33.5156H18.2344V15.2344C18.2344 13.5543 19.6012 12.1875 21.2812 12.1875V30.4688H45.8594V12.1875C47.5394 12.1875 48.9062 13.5543 48.9062 15.2344V33.5156Z" fill="white"/>
<path d="M12.1875 12.1875V10.4856L11.1272 0H1.06031L0 10.4856V12.1875H4.57031V18.2812H0V39.6094H3.04688V27.4219H9.14062V39.6094H12.1875V18.2812H7.61719V12.1875H12.1875ZM9.14062 21.3281V24.375H3.04688V21.3281H9.14062ZM3.19841 9.14062L3.81459 3.04688H8.37281L8.98899 9.14062H3.19841Z" fill="white"/>
</svg>
