<svg width="47" height="46" viewBox="0 0 47 46" fill="none" xmlns="http://www.w3.org/2000/svg">
<g clip-path="url(#clip0)">
<path d="M19.4978 32.4336H16.7715V35.1289H19.4978V32.4336Z" fill="white"/>
<path d="M8.5925 32.4336H5.86621V35.1289H8.5925V32.4336Z" fill="white"/>
<path d="M19.4978 10.8711H16.7715V13.5664H19.4978V10.8711Z" fill="white"/>
<path d="M8.5925 10.8711H5.86621V13.5664H8.5925V10.8711Z" fill="white"/>
<path d="M41.49 32.4336H27.6768V35.1289H41.49V32.4336Z" fill="white"/>
<path d="M14.0455 27.043V24.3477H11.3192V27.043H8.59294V21.6523H5.86665V27.043H3.14036V24.3477H0.414062V46H46.9428V27.043H14.0455ZM11.3192 43.3047H3.14036V29.7383H11.3192V43.3047ZM22.2244 43.3047H14.0455V29.7383H22.2244V43.3047ZM44.2165 43.3047H24.9507V29.7383H44.2165V43.3047Z" fill="white"/>
<path d="M38.673 10.1775V0H30.4942V10.1775L24.9507 14.0922V0H0.414062V18.957H46.9428V16.0173L38.673 10.1775ZM11.3192 16.2617H3.14036V2.69531H11.3192V16.2617ZM22.2244 16.2617H14.0455V2.69531H22.2244V16.2617ZM26.5689 16.2617L33.2205 11.5647V2.69531H35.9468V11.5647L42.5983 16.2617H26.5689Z" fill="white"/>
</g>
<defs>
<clipPath id="clip0">
<rect x="0.414062" width="46.5287" height="46" fill="white"/>
</clipPath>
</defs>
</svg>
