<svg width="46" height="46" viewBox="0 0 46 46" fill="none" xmlns="http://www.w3.org/2000/svg">
<path d="M16.3719 34.9289V32.6336H18.6672V34.9289H16.3719Z" fill="#6F727C" stroke="#1F2127" stroke-width="0.4"/>
<path d="M5.59063 34.9289V32.6336H7.88594V34.9289H5.59063Z" fill="#6F727C" stroke="#1F2127" stroke-width="0.4"/>
<path d="M16.3719 13.3664V11.0711H18.6672V13.3664H16.3719Z" fill="#6F727C" stroke="#1F2127" stroke-width="0.4"/>
<path d="M5.59063 13.3664V11.0711H7.88594V13.3664H5.59063Z" fill="#6F727C" stroke="#1F2127" stroke-width="0.4"/>
<path d="M27.1531 34.9289V32.6336H40.4094V34.9289H27.1531Z" fill="#6F727C" stroke="#1F2127" stroke-width="0.4"/>
<path d="M13.2766 27.043V27.243H13.4766H45.8V45.8H0.2V24.5477H2.49531V27.043V27.243H2.69531H5.39062H5.59062V27.043V21.8523H7.88594V27.043V27.243H8.08594H10.7812H10.9812V27.043V24.5477H13.2766V27.043ZM10.7812 43.5047H10.9812V43.3047V29.7383V29.5383H10.7812H2.69531H2.49531V29.7383V43.3047V43.5047H2.69531H10.7812ZM21.5625 43.5047H21.7625V43.3047V29.7383V29.5383H21.5625H13.4766H13.2766V29.7383V43.3047V43.5047H13.4766H21.5625ZM43.3047 43.5047H43.5047V43.3047V29.7383V29.5383H43.3047H24.2578H24.0578V29.7383V43.3047V43.5047H24.2578H43.3047Z" fill="#6F727C" stroke="#1F2127" stroke-width="0.4"/>
<path d="M37.6242 10.1775V10.2804L37.708 10.3402L45.8 16.1203V18.757H0.2V0.2H24.0578V14.0922V14.4808L24.3741 14.2549L29.8545 10.3402L29.9383 10.2804V10.1775V0.2H37.6242V10.1775ZM10.7812 16.4617H10.9812V16.2617V2.69531V2.49531H10.7812H2.69531H2.49531V2.69531V16.2617V16.4617H2.69531H10.7812ZM21.5625 16.4617H21.7625V16.2617V2.69531V2.49531H21.5625H13.4766H13.2766V2.69531V16.2617V16.4617H13.4766H21.5625ZM25.7414 16.099L25.2336 16.4617H25.8577H41.7048H42.3289L41.8211 16.099L35.3289 11.4618V2.69531V2.49531H35.1289H32.4336H32.2336V2.69531V11.4618L25.7414 16.099Z" fill="#6F727C" stroke="#1F2127" stroke-width="0.4"/>
</svg>
