<svg width="18" height="22" viewBox="0 0 18 22" fill="none" xmlns="http://www.w3.org/2000/svg">
<path d="M15.1875 6.875H13.8125V8.25H15.1875V6.875Z" fill="#FF2021"/>
<path d="M15.1875 9.625H13.8125V11H15.1875V9.625Z" fill="#FF2021"/>
<path d="M15.1875 2.75V0H4.59038L0.0625 4.52787V19.25H2.8125V22H17.9375V13.75H16.5625V20.625H4.1875V19.25H15.1875V12.375H13.8125V17.875H1.4375V5.5H5.5625V1.375H13.8125V5.5H15.1875V4.125H16.5625V6.875H17.9375V2.75H15.1875ZM4.1875 4.125H2.40963L4.1875 2.34713V4.125Z" fill="#FF2021"/>
<path d="M17.9375 8.25H16.5625V9.625H17.9375V8.25Z" fill="#FF2021"/>
<path d="M17.9375 11H16.5625V12.375H17.9375V11Z" fill="#FF2021"/>
</svg>
