<svg width="74" height="74" viewBox="0 0 74 74" fill="none" xmlns="http://www.w3.org/2000/svg">
<g clip-path="url(#clip0)">
<path d="M61.6744 66.5999H12.3256C9.05854 66.5938 5.92702 65.2932 3.61684 62.9831C1.30666 60.6729 0.00611242 57.5414 0 54.2743L0 19.7255C0.00611242 16.4584 1.30666 13.3269 3.61684 11.0167C5.92702 8.70657 9.05854 7.40601 12.3256 7.3999H61.6744C64.9415 7.40601 68.073 8.70657 70.3832 11.0167C72.6933 13.3269 73.9939 16.4584 74 19.7255V54.2743C73.9939 57.5414 72.6933 60.6729 70.3832 62.9831C68.073 65.2932 64.9415 66.5938 61.6744 66.5999ZM12.3256 12.3255C10.363 12.3255 8.4808 13.1052 7.09303 14.4929C5.70527 15.8807 4.92563 17.7629 4.92563 19.7255V54.2743C4.92563 56.2369 5.70527 58.1191 7.09303 59.5069C8.4808 60.8946 10.363 61.6743 12.3256 61.6743H61.6744C63.637 61.6743 65.5192 60.8946 66.907 59.5069C68.2947 58.1191 69.0744 56.2369 69.0744 54.2743V19.7255C69.0744 17.7629 68.2947 15.8807 66.907 14.4929C65.5192 13.1052 63.637 12.3255 61.6744 12.3255H12.3256Z" fill="white"/>
<path d="M36.9996 36.075C33.401 36.075 29.8922 34.9513 26.9633 32.8606L15.8402 24.9287C15.2943 24.5485 14.9219 23.967 14.8048 23.3121C14.6877 22.6573 14.8355 21.9827 15.2158 21.4369C15.5961 20.891 16.1776 20.5186 16.8324 20.4015C17.4873 20.2844 18.1618 20.4322 18.7077 20.8125L29.8308 28.7444C31.927 30.2383 34.437 31.0412 37.0111 31.0412C39.5852 31.0412 42.0952 30.2383 44.1914 28.7444L55.2914 20.8125C55.826 20.475 56.4696 20.355 57.0899 20.4771C57.7102 20.5991 58.2603 20.954 58.6272 21.4689C58.9941 21.9837 59.1501 22.6195 59.063 23.2457C58.9759 23.8719 58.6524 24.441 58.1589 24.8362L47.0358 32.7681C44.1179 34.8917 40.6083 36.0481 36.9996 36.075Z" fill="white"/>
</g>
<defs>
<clipPath id="clip0">
<rect width="74" height="74" fill="white"/>
</clipPath>
</defs>
</svg>
