<svg width="12" height="10" viewBox="0 0 12 10" fill="none" xmlns="http://www.w3.org/2000/svg">
<path d="M4.21596 9.12258L0.178383 5.085C0.063221 4.96984 2.21385e-07 4.8162 2.13704e-07 4.64909C2.06173e-07 4.48526 0.063221 4.33172 0.178383 4.21655L4.21596 0.178883C4.45456 -0.0596278 4.84289 -0.0596279 5.08131 0.178883L5.44808 0.545472C5.56316 0.660634 5.62647 0.814275 5.62647 0.978194C5.62647 1.14202 5.56316 1.30094 5.44808 1.41601L3.09245 3.77674L10.5762 3.77674C10.9135 3.77674 11.1887 4.0409 11.1887 4.3782L11.1887 4.8967C11.1887 5.234 10.9135 5.52491 10.5762 5.52491L3.06589 5.52491L5.44809 7.89901C5.56316 8.01408 5.62647 8.16362 5.62647 8.32754C5.62647 8.49146 5.56316 8.64283 5.44809 8.75808L5.08131 9.12358C4.8428 9.36218 4.45456 9.36127 4.21596 9.12258Z" fill="#9A9A9A"/>
</svg>
