<svg width="18" height="12" viewBox="0 0 18 12" fill="none" xmlns="http://www.w3.org/2000/svg">
<path d="M17.7123 1.57267L17.1227 0.978963C16.9371 0.793547 16.6902 0.691399 16.4264 0.691399C16.1627 0.691399 15.9155 0.793547 15.7299 0.978963L9.00402 7.70516L2.27036 0.971499C2.08509 0.786083 1.83792 0.684082 1.57421 0.684082C1.3105 0.684082 1.06318 0.786083 0.877763 0.971499L0.288002 1.56155C-0.0960008 1.94526 -0.0960008 2.57029 0.288002 2.954L8.30524 11.0001C8.49051 11.1853 8.73739 11.3159 9.00344 11.3159H9.00651C9.27037 11.3159 9.51725 11.1852 9.70252 11.0001L17.7123 2.97581C17.8979 2.79054 17.9997 2.53619 18 2.27249C18 2.00863 17.8979 1.7578 17.7123 1.57267Z" fill="#FF2021"/>
</svg>
