<svg width="19" height="18" viewBox="0 0 19 18" fill="none" xmlns="http://www.w3.org/2000/svg">
<path d="M13.3775 0H5.12243C2.43573 0 0.25 2.18573 0.25 4.87243V13.1277C0.25 15.8142 2.43573 18 5.12243 18H13.3777C16.0642 18 18.25 15.8142 18.25 13.1277V4.87243C18.25 2.18573 16.0642 0 13.3775 0V0ZM9.24998 13.9217C6.53609 13.9217 4.32825 11.7139 4.32825 8.99998C4.32825 6.28609 6.53609 4.07825 9.24998 4.07825C11.9639 4.07825 14.1717 6.28609 14.1717 8.99998C14.1717 11.7139 11.9639 13.9217 9.24998 13.9217ZM14.2894 5.23896C13.4874 5.23896 12.8351 4.58665 12.8351 3.78465C12.8351 2.98264 13.4874 2.3302 14.2894 2.3302C15.0914 2.3302 15.7438 2.98264 15.7438 3.78465C15.7438 4.58665 15.0914 5.23896 14.2894 5.23896Z" fill="#9A9A9A"/>
</svg>
