<svg width="243" height="34" viewBox="0 0 243 34" fill="none" xmlns="http://www.w3.org/2000/svg">
<path d="M29.92 15.864V33H24.16L23.92 29.256C22.096 32.072 19.072 33.48 14.848 33.48C11.968 33.48 9.408 32.856 7.168 31.608C4.96 30.328 3.232 28.472 1.984 26.04C0.736 23.576 0.112 20.632 0.112 17.208C0.112 13.816 0.752 10.904 2.032 8.472C3.312 6.008 5.136 4.12 7.504 2.808C9.872 1.496 12.672 0.839999 15.904 0.839999C19.52 0.839999 22.432 1.48 24.64 2.76C26.848 4.04 28.592 6.104 29.872 8.952L22.24 11.976C21.856 10.408 21.136 9.24 20.08 8.472C19.024 7.704 17.712 7.32 16.144 7.32C13.712 7.32 11.84 8.152 10.528 9.816C9.248 11.48 8.608 13.928 8.608 17.16C8.608 23.816 11.2 27.144 16.384 27.144C18.336 27.144 19.904 26.696 21.088 25.8C22.304 24.904 22.912 23.608 22.912 21.912V21.432H15.04V15.864H29.92ZM61.9675 26.616V33H36.6715V1.32H61.3435V7.704H44.9275V14.136H57.9835V20.136H44.9275V26.616H61.9675ZM95.9928 33H86.8248L76.9847 15.864L74.5847 11.064H74.5367L74.7287 17.016V33H67.4327V1.32H76.6007L86.4407 18.456L88.8408 23.256H88.8888L88.6968 17.304V1.32H95.9928V33ZM130.131 7.704H119.811V33H111.555V7.704H101.187V1.32H130.131V7.704ZM143.586 33H135.33V1.32H143.586V33ZM179.651 33H170.483L160.643 15.864L158.243 11.064H158.195L158.387 17.016V33H151.091V1.32H160.259L170.099 18.456L172.499 23.256H172.547L172.355 17.304V1.32H179.651V33ZM195.406 33H187.15V1.32H195.406V33ZM215.295 0.839999C218.303 0.839999 220.863 1.288 222.975 2.184C225.119 3.08 227.103 4.536 228.927 6.552L224.271 11.928C223.215 10.328 221.967 9.16 220.527 8.424C219.119 7.656 217.423 7.272 215.439 7.272C213.775 7.272 212.495 7.56 211.599 8.136C210.703 8.712 210.255 9.48 210.255 10.44C210.255 11.24 210.719 11.896 211.647 12.408C212.607 12.888 214.223 13.336 216.495 13.752C220.879 14.552 223.999 15.72 225.855 17.256C227.743 18.792 228.687 20.952 228.687 23.736C228.687 25.752 228.111 27.496 226.959 28.968C225.807 30.44 224.207 31.56 222.159 32.328C220.143 33.096 217.855 33.48 215.295 33.48C211.711 33.48 208.799 33.048 206.559 32.184C204.319 31.288 202.383 29.928 200.751 28.104L204.975 22.344C206.223 24.072 207.631 25.288 209.199 25.992C210.767 26.696 212.655 27.048 214.863 27.048C216.623 27.048 217.935 26.808 218.799 26.328C219.695 25.816 220.143 25.096 220.143 24.168C220.143 23.432 219.663 22.84 218.703 22.392C217.775 21.912 216.207 21.464 213.999 21.048C211.279 20.504 209.023 19.864 207.231 19.128C205.471 18.36 204.095 17.336 203.103 16.056C202.143 14.776 201.663 13.144 201.663 11.16C201.663 9.176 202.191 7.4 203.247 5.832C204.335 4.264 205.903 3.048 207.951 2.184C210.031 1.288 212.479 0.839999 215.295 0.839999Z" fill="#191A1E"/>
<path d="M237.737 24.744C239.241 24.744 240.409 25.128 241.241 25.896C242.105 26.664 242.537 27.736 242.537 29.112C242.537 30.456 242.105 31.512 241.241 32.28C240.409 33.048 239.241 33.432 237.737 33.432C236.233 33.432 235.049 33.048 234.185 32.28C233.353 31.512 232.937 30.456 232.937 29.112C232.937 27.736 233.353 26.664 234.185 25.896C235.049 25.128 236.233 24.744 237.737 24.744Z" fill="#FF2021"/>
</svg>
