<svg width="18" height="16" viewBox="0 0 18 16" fill="none" xmlns="http://www.w3.org/2000/svg">
<path d="M11.2175 15.1937L17.713 8.69814C17.8983 8.51287 18 8.2657 18 7.99687C18 7.73331 17.8983 7.48629 17.713 7.30102L11.2175 0.805358C10.8337 0.421651 10.2089 0.421651 9.82537 0.805358L9.23532 1.39511C9.0502 1.58038 8.94834 1.82755 8.94834 2.09126C8.94834 2.35482 9.0502 2.61048 9.23532 2.7956L13.025 6.59346L0.985319 6.59346C0.442686 6.59346 1.62319e-06 7.01843 1.59947e-06 7.56106L1.56301e-06 8.39521C1.53929e-06 8.93785 0.442686 9.40584 0.985319 9.40584L13.0677 9.40585L9.23532 13.2252C9.0502 13.4103 8.94834 13.6509 8.94834 13.9146C8.94834 14.1783 9.0502 14.4218 9.23532 14.6073L9.82537 15.1953C10.2091 15.5791 10.8337 15.5777 11.2175 15.1937Z" fill="white"/>
</svg>
