<svg width="18" height="18" viewBox="0 0 18 18" fill="none" xmlns="http://www.w3.org/2000/svg">
<g clip-path="url(#clip0)">
<path d="M11.2175 16.1937L17.713 9.69814C17.8983 9.51287 18 9.2657 18 8.99687C18 8.73331 17.8983 8.48629 17.713 8.30102L11.2175 1.80536C10.8337 1.42165 10.2089 1.42165 9.82537 1.80536L9.23532 2.39511C9.0502 2.58038 8.94834 2.82755 8.94834 3.09126C8.94834 3.35482 9.0502 3.61048 9.23532 3.7956L13.025 7.59346L0.985319 7.59346C0.442686 7.59346 1.62319e-06 8.01843 1.59947e-06 8.56106L1.56301e-06 9.39521C1.53929e-06 9.93785 0.442686 10.4058 0.985319 10.4058L13.0677 10.4058L9.23532 14.2252C9.0502 14.4103 8.94834 14.6509 8.94834 14.9146C8.94834 15.1783 9.0502 15.4218 9.23532 15.6073L9.82537 16.1953C10.2091 16.5791 10.8337 16.5777 11.2175 16.1937Z" fill="#191A1E"/>
</g>
<defs>
<clipPath id="clip0">
<rect x="18" width="18" height="18" transform="rotate(90 18 0)" fill="white"/>
</clipPath>
</defs>
</svg>
