<svg width="85" height="85" viewBox="0 0 85 85" fill="none" xmlns="http://www.w3.org/2000/svg">
<g clip-path="url(#clip0)">
<path d="M29.2186 63.2804C28.7594 63.2804 28.3002 63.1611 27.8905 62.9251C27.0683 62.4505 26.5625 61.5736 26.5625 60.6241V23.9063C26.5625 22.9568 27.0683 22.0827 27.888 21.6081C28.7103 21.1334 29.722 21.1256 30.5442 21.6055L62.4193 39.9553C63.2416 40.4274 63.7501 41.3068 63.7501 42.2563C63.7501 43.2057 63.2443 44.0824 62.4193 44.5572L30.5442 62.9253C30.1342 63.1612 29.675 63.2804 29.2186 63.2804ZM31.8748 28.5002V56.0277L55.7708 42.2561C55.7706 42.2561 31.8748 28.5002 31.8748 28.5002Z" fill="white"/>
<path d="M42.5001 85C19.0659 85 0 65.9341 0 42.4999C0 19.0657 19.0659 0 42.5001 0C65.9343 0 85.0002 19.0659 85.0002 42.5001C85.0002 65.9343 65.9341 85 42.5001 85ZM42.5001 5.31251C21.9946 5.31251 5.31251 21.9945 5.31251 42.5001C5.31251 63.0057 21.9945 79.6877 42.5001 79.6877C63.0057 79.6877 79.6875 63.0055 79.6875 42.5001C79.6875 21.9946 63.0055 5.31251 42.5001 5.31251Z" fill="white"/>
</g>
<defs>
<clipPath id="clip0">
<rect width="85" height="85" fill="white"/>
</clipPath>
</defs>
</svg>
