<svg width="18" height="16" viewBox="0 0 18 16" fill="none" xmlns="http://www.w3.org/2000/svg">
<path d="M6.78249 15.1937L0.286976 8.69814C0.101708 8.51287 3.38681e-07 8.2657 3.2693e-07 7.99687C3.1541e-07 7.73331 0.101708 7.48629 0.286976 7.30102L6.78249 0.805358C7.16634 0.421651 7.79107 0.421651 8.17463 0.805358L8.76468 1.39511C8.9498 1.58038 9.05166 1.82755 9.05166 2.09126C9.05166 2.35482 8.9498 2.61048 8.76468 2.7956L4.97502 6.59346L17.0147 6.59346C17.5573 6.59346 18 7.01843 18 7.56106L18 8.39521C18 8.93785 17.5573 9.40584 17.0147 9.40584L4.93229 9.40585L8.76468 13.2252C8.9498 13.4103 9.05166 13.6509 9.05166 13.9146C9.05166 14.1783 8.9498 14.4218 8.76468 14.6073L8.17463 15.1953C7.79093 15.5791 7.16634 15.5777 6.78249 15.1937Z" fill="#191A1E"/>
</svg>
