<svg width="44" height="44" viewBox="0 0 44 44" fill="none" xmlns="http://www.w3.org/2000/svg">
<path d="M41.046 19.8456C39.2019 17.9678 36.7574 16.8807 34.1388 16.768C34.1264 16.6044 34.1172 16.3789 34.1172 16.0703C34.1172 14.806 35.0787 10.9429 35.6848 8.80481L36.305 6.61719H28.7782L28.274 7.42955C28.0741 7.75182 23.375 15.456 23.375 27.0703C23.375 32.7566 28.0012 37.3828 33.6875 37.3828C39.3738 37.3828 44 32.7566 44 27.0703C44 24.3512 42.9509 21.7854 41.046 19.8456ZM33.6875 33.9453C29.8966 33.9453 26.8125 30.8612 26.8125 27.0703C26.8125 18.535 29.6343 12.2174 30.7495 10.0547H31.7918C31.2979 11.9955 30.6797 14.6988 30.6797 16.0703C30.6797 17.1586 30.7605 18.033 31.155 18.7627C31.5064 19.4128 32.2413 20.187 33.7489 20.1952L33.8239 20.1971C37.5396 20.2691 40.5625 23.3524 40.5625 27.0703C40.5625 30.8612 37.4784 33.9453 33.6875 33.9453Z" fill="white"/>
<path d="M17.671 19.8456C15.8269 17.9678 13.3824 16.8807 10.7638 16.768C10.7514 16.6044 10.7422 16.3789 10.7422 16.0703C10.7422 14.806 11.7037 10.9429 12.3098 8.80481L12.93 6.61719H5.40323L4.89904 7.42955C4.69906 7.75182 0 15.456 0 27.0703C0 32.7566 4.62619 37.3828 10.3125 37.3828C15.9988 37.3828 20.625 32.7566 20.625 27.0703C20.625 24.3512 19.5759 21.7854 17.671 19.8456ZM10.3125 33.9453C6.52163 33.9453 3.4375 30.8612 3.4375 27.0703C3.4375 18.535 6.25934 12.2174 7.37447 10.0547H8.41681C7.92292 11.9955 7.30469 14.6988 7.30469 16.0703C7.30469 17.1586 7.38547 18.033 7.78001 18.7627C8.13141 19.4128 8.86634 20.187 10.3739 20.1952L10.4489 20.1971C14.1646 20.2691 17.1875 23.3524 17.1875 27.0703C17.1875 30.8612 14.1034 33.9453 10.3125 33.9453Z" fill="white"/>
</svg>
