<svg width="48" height="48" viewBox="0 0 48 48" fill="none" xmlns="http://www.w3.org/2000/svg">
<path d="M35.7349 3.1439C35.2861 2.88478 34.7116 3.03871 34.4525 3.48749C34.1934 3.93721 34.3473 4.51077 34.7961 4.76989C35.2449 5.02995 35.8194 4.87602 36.0785 4.4263C36.3376 3.97762 36.1837 3.40396 35.7349 3.1439Z" fill="#6F717C"/>
<path d="M23.9998 0C23.4816 0 23.061 0.42056 23.061 0.938807C23.061 1.45705 23.4816 1.87761 23.9998 1.87761C24.5181 1.87761 24.9386 1.45705 24.9386 0.938807C24.9386 0.42056 24.5181 0 23.9998 0Z" fill="#6F717C"/>
<path d="M23.9998 24.9719C23.4816 24.9719 23.061 25.3925 23.061 25.9107C23.061 26.429 23.4816 26.8495 23.9998 26.8495C24.5181 26.8495 24.9386 26.429 24.9386 25.9107C24.9386 25.3926 24.5181 24.9719 23.9998 24.9719Z" fill="#6F717C"/>
<path d="M13.5477 3.48761C13.2886 3.03884 12.7141 2.8849 12.2653 3.14402C11.8165 3.40408 11.6626 3.97764 11.9217 4.42642C12.1809 4.87614 12.7554 5.03007 13.2041 4.77001C13.6528 4.51089 13.8068 3.93724 13.5477 3.48761Z" fill="#6F717C"/>
<path d="M23.9998 3.75525C23.4814 3.75525 23.061 4.17553 23.061 4.69406V8.44928C23.061 8.96781 23.4814 9.38809 23.9998 9.38809C24.5183 9.38809 24.9386 8.96781 24.9386 8.44928V4.69396C24.9386 4.17553 24.5183 3.75525 23.9998 3.75525Z" fill="#6F717C"/>
<path d="M17.3029 9.99255L15.4254 6.73963C15.1661 6.29057 14.5921 6.13635 14.143 6.39585C13.6939 6.65507 13.54 7.2291 13.7992 7.67825L15.6768 10.9313C15.8508 11.2325 16.1663 11.4009 16.4909 11.4009C16.65 11.4009 16.8115 11.3603 16.9592 11.2749C17.4082 11.0157 17.5621 10.4416 17.3029 9.99255Z" fill="#6F717C"/>
<path d="M33.8572 6.39597C33.4079 6.13666 32.834 6.2906 32.5748 6.73975L30.6972 9.99267C30.438 10.4416 30.5919 11.0158 31.041 11.275C31.1888 11.3603 31.3501 11.4009 31.5093 11.4009C31.8339 11.4009 32.1494 11.2324 32.3234 10.9313L34.201 7.67837C34.4602 7.22931 34.3063 6.6551 33.8572 6.39597Z" fill="#6F717C"/>
<path d="M43.7143 25.9044C43.7142 25.8929 43.7136 25.8814 43.713 25.8698C43.7124 25.8578 43.7117 25.8458 43.7107 25.8337C43.7101 25.826 43.71 25.8182 43.7091 25.8107C43.708 25.8002 43.7061 25.7897 43.7047 25.7793C43.703 25.7675 43.7011 25.7558 43.699 25.744C43.6974 25.7352 43.6964 25.7263 43.6945 25.7176C43.6926 25.7088 43.6901 25.7002 43.688 25.6915C43.6851 25.6795 43.682 25.6675 43.6786 25.6555C43.6759 25.6458 43.6735 25.636 43.6705 25.6264C43.6684 25.6197 43.6656 25.613 43.6632 25.6063C43.6588 25.5935 43.6541 25.5809 43.6492 25.5682C43.6453 25.5582 43.6416 25.5481 43.6374 25.5382C43.6352 25.5331 43.6325 25.528 43.6301 25.5228C43.6241 25.5096 43.6177 25.4967 43.6112 25.4837C43.6061 25.4737 43.6012 25.4638 43.5958 25.4541C43.5949 25.4524 43.5942 25.4508 43.5933 25.4491L37.9678 15.4977C37.965 15.4928 37.9615 15.4886 37.9586 15.4837C37.9429 15.457 37.9258 15.431 37.9075 15.406C37.9027 15.3994 37.8981 15.3927 37.8932 15.3863C37.8699 15.356 37.8448 15.3266 37.8177 15.2993C37.8174 15.2989 37.8169 15.2985 37.8164 15.2981C37.7907 15.2722 37.7629 15.2481 37.734 15.2251C37.7268 15.2194 37.7195 15.2141 37.7122 15.2086C37.6889 15.1913 37.6646 15.175 37.6393 15.1595C37.6312 15.1545 37.6232 15.1493 37.6149 15.1446C37.5829 15.1264 37.5499 15.1094 37.5152 15.0948C37.5148 15.0946 37.5145 15.0944 37.514 15.0942C37.5139 15.0942 37.5137 15.0942 37.5136 15.0941C37.4787 15.0794 37.4433 15.0678 37.4078 15.0576C37.3978 15.0548 37.3878 15.0526 37.3778 15.0501C37.3498 15.0431 37.3218 15.0374 37.2937 15.033C37.2836 15.0315 37.2738 15.0298 37.2637 15.0286C37.2261 15.024 37.1885 15.0211 37.1511 15.0211C37.151 15.0211 37.1509 15.0211 37.1507 15.0211H37.1505C37.1489 15.0211 37.1474 15.0211 37.1458 15.0211H23.9998H23.9974H10.8582C10.8193 15.021 10.7804 15.024 10.7413 15.0288C10.7322 15.0299 10.7233 15.0315 10.7143 15.0329C10.6859 15.0373 10.6575 15.0431 10.6292 15.0502C10.6187 15.0528 10.6083 15.0552 10.598 15.0582C10.5673 15.0671 10.5368 15.0776 10.5067 15.0897C10.5016 15.0917 10.4964 15.0931 10.4914 15.0953C10.4905 15.0957 10.4896 15.0958 10.4887 15.0962C10.4548 15.1107 10.4226 15.1273 10.3913 15.1452C10.3835 15.1497 10.3761 15.1548 10.3684 15.1595C10.3431 15.1749 10.3187 15.1913 10.2953 15.2088C10.2877 15.2145 10.2801 15.2203 10.2725 15.2263C10.2464 15.2471 10.2215 15.269 10.198 15.2922C10.1949 15.2952 10.1917 15.2979 10.1887 15.301C10.1617 15.3282 10.1367 15.3572 10.1136 15.3874C10.1092 15.3931 10.1052 15.3992 10.1009 15.405C10.0824 15.4302 10.0652 15.4564 10.0494 15.4833C10.0466 15.4882 10.0431 15.4924 10.0402 15.4973L4.41856 25.428C4.41837 25.4283 4.41828 25.4284 4.41809 25.4287L4.40694 25.4483C4.406 25.45 4.40534 25.4518 4.40431 25.4535C4.3985 25.4639 4.39325 25.4746 4.38781 25.4853C4.38106 25.4985 4.3745 25.5117 4.36841 25.5253C4.36653 25.5294 4.36447 25.5335 4.36259 25.5377C4.358 25.5483 4.35406 25.5591 4.34984 25.57C4.34478 25.5829 4.33991 25.5959 4.33541 25.6091C4.33344 25.6147 4.33119 25.6203 4.32941 25.626C4.32612 25.6363 4.32369 25.6469 4.32069 25.6574C4.31722 25.6698 4.31375 25.6821 4.31084 25.6948C4.30906 25.7023 4.30691 25.7097 4.30531 25.7172C4.30334 25.7267 4.30213 25.7364 4.30044 25.746C4.29828 25.7582 4.29613 25.7703 4.29444 25.7828C4.29322 25.792 4.29163 25.8012 4.29069 25.8104C4.28975 25.8188 4.28966 25.8273 4.28891 25.8358C4.28788 25.8483 4.28694 25.8606 4.28647 25.8732C4.28609 25.8835 4.28553 25.8938 4.28544 25.9041C4.28544 25.9063 4.28516 25.9084 4.28516 25.9106C4.28516 25.9164 4.28591 25.9221 4.286 25.9279C4.28619 25.9403 4.28666 25.9527 4.28731 25.9652C4.28788 25.9754 4.28844 25.9856 4.28938 25.9958C4.29013 26.0045 4.29116 26.0131 4.29219 26.0217C4.29359 26.0335 4.29528 26.0452 4.29716 26.057C4.29866 26.0663 4.30006 26.0756 4.30184 26.0848C4.30363 26.0943 4.3055 26.1038 4.30766 26.1133C4.31019 26.1246 4.31309 26.1358 4.316 26.147C4.31816 26.1554 4.32041 26.1637 4.32275 26.1721C4.32566 26.1821 4.32856 26.192 4.33175 26.202C4.33522 26.2127 4.33916 26.2232 4.343 26.2337C4.346 26.2418 4.34909 26.25 4.35228 26.2581C4.35622 26.2679 4.36006 26.2776 4.36428 26.2873C4.3685 26.297 4.37319 26.3066 4.37778 26.3162C4.382 26.3249 4.38631 26.3335 4.39072 26.3421C4.3955 26.3512 4.40019 26.3603 4.40525 26.3693C4.41003 26.3778 4.415 26.3862 4.42006 26.3946C4.42569 26.404 4.43159 26.4133 4.43759 26.4225C4.44312 26.431 4.44884 26.4393 4.45466 26.4477C4.45981 26.455 4.46487 26.4623 4.47031 26.4696C4.47725 26.479 4.48437 26.4881 4.49169 26.4973C4.49834 26.5055 4.50528 26.5135 4.51212 26.5216C4.51606 26.5262 4.51934 26.531 4.52347 26.5356L23.4169 47.6866C23.44 47.7126 23.4648 47.7371 23.4905 47.76C23.4942 47.7633 23.4983 47.7661 23.502 47.7694C23.5291 47.7929 23.5575 47.8146 23.5869 47.8348C23.5964 47.8413 23.6062 47.8475 23.6159 47.8537C23.6433 47.8709 23.6714 47.8867 23.7003 47.9011C23.7083 47.9051 23.7159 47.9095 23.7239 47.9132C23.7604 47.93 23.7978 47.9443 23.8362 47.9564C23.8454 47.9593 23.8548 47.9614 23.8641 47.9639C23.8949 47.9726 23.9262 47.9796 23.9579 47.9851C23.9695 47.9871 23.9811 47.9892 23.9928 47.9908C24.0338 47.9962 24.0749 47.9999 24.1168 47.9999C24.1179 47.9999 24.1188 47.9999 24.1197 47.9999C24.1617 47.9998 24.2031 47.9959 24.2441 47.9903C24.2559 47.9887 24.2673 47.9866 24.279 47.9846C24.3108 47.9789 24.3423 47.9718 24.3732 47.963C24.3825 47.9604 24.3919 47.9583 24.4011 47.9553C24.4395 47.9431 24.477 47.9285 24.5136 47.9114C24.5215 47.9077 24.5291 47.9033 24.537 47.8993C24.566 47.8848 24.5942 47.8688 24.6216 47.8513C24.6314 47.845 24.6411 47.8387 24.6507 47.832C24.6798 47.8119 24.7079 47.7902 24.7347 47.7668C24.7388 47.7632 24.7432 47.7601 24.7472 47.7566C24.7729 47.7332 24.7976 47.7086 24.8209 47.6822L43.4798 26.5321C43.4832 26.5282 43.4859 26.5241 43.4892 26.5202C43.4954 26.513 43.5016 26.5057 43.5076 26.4983C43.5156 26.4883 43.5233 26.4782 43.5309 26.4678C43.5362 26.4607 43.5413 26.4536 43.5464 26.4464C43.5516 26.4389 43.5567 26.4312 43.5618 26.4235C43.5683 26.4135 43.5745 26.4033 43.5807 26.3931C43.5858 26.3847 43.5908 26.3764 43.5956 26.3679C43.6001 26.3597 43.6043 26.3515 43.6086 26.3432C43.6134 26.3339 43.618 26.3244 43.6225 26.3149C43.6272 26.3052 43.632 26.2955 43.6363 26.2857C43.6401 26.2769 43.6435 26.268 43.6471 26.2591C43.6506 26.2503 43.6538 26.2415 43.657 26.2326C43.661 26.2218 43.6651 26.2111 43.6686 26.2002C43.6715 26.1912 43.674 26.1821 43.6767 26.173C43.6793 26.164 43.6816 26.1549 43.6839 26.1458C43.6868 26.1344 43.69 26.123 43.6925 26.1114C43.6943 26.1029 43.6959 26.0942 43.6975 26.0855C43.6994 26.0755 43.7009 26.0654 43.7025 26.0552C43.7043 26.0434 43.7061 26.0317 43.7076 26.0198C43.7085 26.0121 43.7093 26.0043 43.71 25.9966C43.711 25.9853 43.7115 25.9741 43.7121 25.9626C43.7128 25.9505 43.7134 25.9384 43.7135 25.9264C43.7136 25.9214 43.7143 25.9164 43.7143 25.9113C43.7146 25.9086 43.7143 25.9066 43.7143 25.9044ZM35.7392 16.8984L32.6954 24.1619L26.1168 16.8984H35.7392ZM21.8978 16.8984L15.3787 24.172L12.2776 16.8984H21.8978ZM10.738 18.0749L13.6787 24.972H6.83411L10.738 18.0749ZM7.32142 26.8496H14.479L21.0153 42.1792L7.32142 26.8496ZM24.1097 44.6498L16.5201 26.8496H20.2447C20.7631 26.8496 21.1835 26.4293 21.1835 25.9108C21.1835 25.3923 20.7631 24.972 20.2447 24.972H17.1832L24.0036 17.362L30.8959 24.972H27.7551C27.2367 24.972 26.8163 25.3923 26.8163 25.9108C26.8163 26.4293 27.2367 26.8496 27.7551 26.8496H31.5692L24.1097 44.6498ZM27.1889 42.1601L33.6049 26.8496H40.6958L27.1889 42.1601ZM34.3916 24.972L37.276 18.0891L41.1668 24.972H34.3916Z" fill="#6F717C"/>
</svg>
