<svg width="52" height="52" viewBox="0 0 52 52" fill="none" xmlns="http://www.w3.org/2000/svg">
<path d="M22.6642 36.0905L17.0625 35.0719V32.8308C17.5926 32.4398 18.06 31.9704 18.4487 31.4387C18.8559 30.8818 19.1694 30.2623 19.3771 29.6045L19.3882 29.5679L20.3795 24.9782L20.3805 24.9732C20.4824 24.4886 20.5338 23.9948 20.5339 23.4996C20.5347 22.5398 20.3394 21.5901 19.96 20.7085C19.5898 19.8451 19.0556 19.0618 18.3869 18.402C17.7113 17.7313 16.9121 17.1978 16.0337 16.831C15.1111 16.4451 14.1207 16.2476 13.1208 16.25C12.6631 16.2496 12.2062 16.2904 11.7559 16.3719C11.5565 16.4084 11.378 16.5181 11.2554 16.6795C11.1328 16.8408 11.0749 17.0422 11.0931 17.244C11.1113 17.4459 11.2042 17.6336 11.3537 17.7704C11.5032 17.9073 11.6984 17.9833 11.9011 17.9836C11.9498 17.9838 11.9984 17.9794 12.0462 17.9704C12.4009 17.9069 12.7605 17.875 13.1208 17.875C14.6632 17.8676 16.1457 18.4721 17.2432 19.5559C18.2057 20.4979 18.7921 21.7582 18.8928 23.1011L18.4704 22.8635C17.2211 22.161 16.0483 22.1696 14.9868 22.8865C14.399 23.2786 13.7084 23.488 13.0019 23.4884C12.2954 23.4888 11.6046 23.2801 11.0165 22.8887C10.5179 22.538 9.92472 22.3468 9.31521 22.3402C8.73844 22.3402 8.15415 22.5112 7.52964 22.863L7.3579 22.9595C7.41242 22.4117 7.54984 21.8753 7.76547 21.3688C7.80715 21.2705 7.82907 21.1651 7.82998 21.0583C7.8309 20.9516 7.81078 20.8458 7.77079 20.7469C7.7308 20.6479 7.67171 20.5578 7.5969 20.4817C7.52209 20.4056 7.43303 20.345 7.33479 20.3033C7.23656 20.2617 7.13107 20.2397 7.02436 20.2388C6.91766 20.2379 6.81181 20.258 6.71288 20.298C6.61394 20.338 6.52385 20.3971 6.44775 20.4719C6.37165 20.5467 6.31103 20.6358 6.26935 20.734C5.89701 21.6084 5.70531 22.5491 5.70578 23.4996C5.70675 23.8031 5.7271 24.1062 5.76672 24.4071C5.76824 24.4242 5.77068 24.4412 5.77342 24.4579C5.79678 24.6306 5.8242 24.8032 5.86026 24.9737L6.85252 29.5685L6.8637 29.6041C7.07137 30.2619 7.38491 30.8814 7.79198 31.4383C8.12023 31.8879 8.50527 32.2931 8.9375 32.6439V35.0719L3.33582 36.0905C2.39962 36.2603 1.55278 36.7535 0.943103 37.484C0.33343 38.2145 -0.000356393 39.1359 2.85559e-07 40.0874V51.1875C2.85559e-07 51.403 0.0856027 51.6097 0.237976 51.762C0.390349 51.9144 0.597012 52 0.8125 52C1.02799 52 1.23465 51.9144 1.38702 51.762C1.5394 51.6097 1.625 51.403 1.625 51.1875V40.0874C1.6248 39.5165 1.82506 38.9637 2.19085 38.5254C2.55663 38.0871 3.0647 37.7912 3.62639 37.6893L8.95253 36.7209C9.02593 37.7069 9.43449 38.6381 10.1103 39.3598C10.479 39.7581 10.926 40.0761 11.4232 40.2939C11.9204 40.5116 12.4572 40.6243 13 40.625C15.125 40.625 16.8731 38.9039 17.0471 36.7208L22.3736 37.6893C22.9353 37.7912 23.4434 38.0871 23.8092 38.5254C24.1749 38.9637 24.3752 39.5165 24.375 40.0874V51.1875C24.375 51.403 24.4606 51.6097 24.613 51.762C24.7653 51.9144 24.972 52 25.1875 52C25.403 52 25.6097 51.9144 25.762 51.762C25.9144 51.6097 26 51.403 26 51.1875V40.0874C26.0004 39.1359 25.6666 38.2145 25.0569 37.484C24.4472 36.7535 23.6004 36.2603 22.6642 36.0905ZM15.4375 36.0547V36.3627C15.4375 37.817 14.344 39 13 39C12.679 38.9983 12.3618 38.9304 12.0682 38.8006C11.7746 38.6708 11.511 38.4818 11.2937 38.2454C10.8183 37.7344 10.5566 37.0607 10.5625 36.3627V33.6159C10.7202 33.6816 10.8807 33.7413 11.0439 33.7949C12.3932 34.2351 13.8475 34.2351 15.1968 33.7949C15.2776 33.7683 15.3579 33.7402 15.4375 33.7106V36.0547ZM13.1219 32.5H13.1188C10.9585 32.5 9.07146 31.1533 8.42349 29.1505L7.47602 24.7579L8.3265 24.2797C8.70228 24.0683 9.02515 23.9657 9.31531 23.9657C9.60242 23.9734 9.88035 24.0686 10.1119 24.2385C10.9678 24.8094 11.9736 25.1138 13.0024 25.1134C14.0312 25.1129 15.0368 24.8076 15.8922 24.2359C16.4422 23.8646 16.9586 23.8774 17.6737 24.2799L18.7386 24.8791L17.8171 29.1495C17.1691 31.1533 15.2821 32.5 13.1219 32.5Z" fill="#6F717C"/>
<path d="M20.3125 42.25C20.097 42.25 19.8903 42.3356 19.738 42.488C19.5856 42.6403 19.5 42.847 19.5 43.0625V51.1875C19.5 51.403 19.5856 51.6097 19.738 51.762C19.8903 51.9144 20.097 52 20.3125 52C20.528 52 20.7347 51.9144 20.887 51.762C21.0394 51.6097 21.125 51.403 21.125 51.1875V43.0625C21.125 42.847 21.0394 42.6403 20.887 42.488C20.7347 42.3356 20.528 42.25 20.3125 42.25Z" fill="#6F717C"/>
<path d="M5.6875 42.25C5.47201 42.25 5.26535 42.3356 5.11298 42.488C4.9606 42.6403 4.875 42.847 4.875 43.0625V51.1875C4.875 51.403 4.9606 51.6097 5.11298 51.762C5.26535 51.9144 5.47201 52 5.6875 52C5.90299 52 6.10965 51.9144 6.26202 51.762C6.4144 51.6097 6.5 51.403 6.5 51.1875V43.0625C6.5 42.847 6.4144 42.6403 6.26202 42.488C6.10965 42.3356 5.90299 42.25 5.6875 42.25Z" fill="#6F717C"/>
<path d="M8.96998 19.3079C9.15341 19.3089 9.33162 19.2469 9.47485 19.1323C9.60711 19.0276 9.70348 18.8842 9.75057 18.7222C9.79766 18.5602 9.79314 18.3875 9.73764 18.2282C9.68214 18.0688 9.5784 17.9307 9.44084 17.833C9.30328 17.7353 9.13871 17.6828 8.96998 17.6829C8.79015 17.6824 8.61533 17.7421 8.47345 17.8526L8.46532 17.8597C8.3332 17.9645 8.23695 18.1077 8.18993 18.2696C8.14291 18.4315 8.14746 18.604 8.20293 18.7632C8.25841 18.9224 8.36207 19.0604 8.49952 19.158C8.63697 19.2556 8.8014 19.308 8.96998 19.3079Z" fill="#6F717C"/>
<path d="M47.9375 0H25.1875C24.1104 0.00120966 23.0778 0.42961 22.3162 1.19121C21.5546 1.95282 21.1262 2.98543 21.125 4.0625V17.0625C21.1262 18.1396 21.5546 19.1722 22.3162 19.9338C23.0778 20.6954 24.1104 21.1238 25.1875 21.125H29.25V28.503L38.4726 21.125H47.9375C49.0146 21.1238 50.0472 20.6954 50.8088 19.9338C51.5704 19.1722 51.9988 18.1396 52 17.0625V4.0625C51.9988 2.98543 51.5704 1.95282 50.8088 1.19121C50.0472 0.42961 49.0146 0.00120966 47.9375 0V0ZM50.375 17.0625C50.3742 17.7087 50.1172 18.3283 49.6602 18.7852C49.2033 19.2422 48.5837 19.4992 47.9375 19.5H37.9024L30.875 25.122V19.5H25.1875C24.5413 19.4992 23.9217 19.2422 23.4648 18.7852C23.0078 18.3283 22.7508 17.7087 22.75 17.0625V4.0625C22.7508 3.41627 23.0078 2.79672 23.4648 2.33976C23.9217 1.8828 24.5413 1.62575 25.1875 1.625H47.9375C48.5837 1.62575 49.2033 1.8828 49.6602 2.33976C50.1172 2.79672 50.3742 3.41627 50.375 4.0625V17.0625Z" fill="#6F717C"/>
<path d="M44.6875 6.5H34.9375C34.722 6.5 34.5153 6.5856 34.363 6.73798C34.2106 6.89035 34.125 7.09701 34.125 7.3125C34.125 7.52799 34.2106 7.73465 34.363 7.88702C34.5153 8.0394 34.722 8.125 34.9375 8.125H44.6875C44.903 8.125 45.1097 8.0394 45.262 7.88702C45.4144 7.73465 45.5 7.52799 45.5 7.3125C45.5 7.09701 45.4144 6.89035 45.262 6.73798C45.1097 6.5856 44.903 6.5 44.6875 6.5Z" fill="#6F717C"/>
<path d="M28.4375 8.125C28.8862 8.125 29.25 7.76123 29.25 7.3125C29.25 6.86377 28.8862 6.5 28.4375 6.5C27.9888 6.5 27.625 6.86377 27.625 7.3125C27.625 7.76123 27.9888 8.125 28.4375 8.125Z" fill="#6F717C"/>
<path d="M31.6875 8.125C32.1362 8.125 32.5 7.76123 32.5 7.3125C32.5 6.86377 32.1362 6.5 31.6875 6.5C31.2388 6.5 30.875 6.86377 30.875 7.3125C30.875 7.76123 31.2388 8.125 31.6875 8.125Z" fill="#6F717C"/>
<path d="M44.6875 9.75H28.4375C28.222 9.75 28.0153 9.8356 27.863 9.98798C27.7106 10.1403 27.625 10.347 27.625 10.5625C27.625 10.778 27.7106 10.9847 27.863 11.137C28.0153 11.2894 28.222 11.375 28.4375 11.375H44.6875C44.903 11.375 45.1097 11.2894 45.262 11.137C45.4144 10.9847 45.5 10.778 45.5 10.5625C45.5 10.347 45.4144 10.1403 45.262 9.98798C45.1097 9.8356 44.903 9.75 44.6875 9.75Z" fill="#6F717C"/>
<path d="M38.1875 13H28.4375C28.222 13 28.0153 13.0856 27.863 13.238C27.7106 13.3903 27.625 13.597 27.625 13.8125C27.625 14.028 27.7106 14.2347 27.863 14.387C28.0153 14.5394 28.222 14.625 28.4375 14.625H38.1875C38.403 14.625 38.6097 14.5394 38.762 14.387C38.9144 14.2347 39 14.028 39 13.8125C39 13.597 38.9144 13.3903 38.762 13.238C38.6097 13.0856 38.403 13 38.1875 13Z" fill="#6F717C"/>
<path d="M44.6875 14.625C45.1362 14.625 45.5 14.2612 45.5 13.8125C45.5 13.3638 45.1362 13 44.6875 13C44.2388 13 43.875 13.3638 43.875 13.8125C43.875 14.2612 44.2388 14.625 44.6875 14.625Z" fill="#6F717C"/>
<path d="M41.4375 14.625C41.8862 14.625 42.25 14.2612 42.25 13.8125C42.25 13.3638 41.8862 13 41.4375 13C40.9888 13 40.625 13.3638 40.625 13.8125C40.625 14.2612 40.9888 14.625 41.4375 14.625Z" fill="#6F717C"/>
</svg>
