<svg width="14" height="12" viewBox="0 0 14 12" fill="none" xmlns="http://www.w3.org/2000/svg">
<path d="M8.72473 11.5951L13.7768 6.54308C13.9209 6.39898 14 6.20674 14 5.99765C14 5.79266 13.9209 5.60053 13.7768 5.45643L8.72473 0.404249C8.42618 0.10581 7.94028 0.10581 7.64195 0.404249L7.18303 0.862948C7.03904 1.00705 6.95982 1.19929 6.95982 1.4044C6.95982 1.60939 7.03904 1.80823 7.18303 1.95222L10.1305 4.9061L0.76636 4.9061C0.344312 4.9061 1.68633e-06 5.23664 1.66789e-06 5.65869L1.63953e-06 6.30747C1.62108e-06 6.72952 0.344311 7.09352 0.76636 7.09352L10.1638 7.09352L7.18303 10.0641C7.03904 10.2081 6.95982 10.3952 6.95982 10.6003C6.95982 10.8055 7.03904 10.9949 7.18303 11.1391L7.64195 11.5964C7.94039 11.8949 8.42618 11.8938 8.72473 11.5951Z" fill="white"/>
</svg>
